<svg
   version="1.2"
   viewBox="0 0 128 128"
   id="svg1">
   <path
      style="fill:#4e59a5;stroke-width:0.427021"
      d="m 43.113245,127.29006 c -1.122996,-0.45765 -1.86778,-1.01968 -1.792113,-1.35236 0.07125,-0.31308 7.325237,-12.95165 16.120047,-28.085685 8.79481,-15.134045 15.990556,-27.659388 15.990556,-27.8341 0,-0.174712 -0.816675,-0.56142 -1.814834,-0.859352 -2.762446,-0.824539 -5.111423,-2.361421 -7.549858,-4.939715 -9.569342,-10.118162 -4.820395,-26.659647 8.704876,-30.320772 9.484202,-2.567245 19.592037,2.966544 22.513582,12.325639 1.003158,3.213591 1.004882,8.300265 0.0041,11.195854 -1.082404,3.130808 -37.141738,64.949211 -38.971324,66.810571 -3.315985,3.37359 -9.129401,4.72073 -13.204732,3.05992 z M 80.143198,56.895375 c 2.012301,-0.9549 3.106436,-2.847987 3.108423,-5.378211 0.0016,-1.711989 -0.224243,-2.281051 -1.422619,-3.588708 -1.237728,-1.350597 -1.726986,-1.576555 -3.736431,-1.725583 -2.837743,-0.210477 -4.588271,0.736403 -5.70255,3.084568 -1.357869,2.861491 -0.182855,6.062219 2.780151,7.573097 1.832467,0.934387 3.059245,0.942981 4.973026,0.03489 z m -5.964175,70.488375 c -1.115592,-0.34305 -2.028349,-0.82576 -2.028349,-1.07272 0,-0.24696 8.237642,-14.60506 18.305862,-31.906897 10.068234,-17.301837 18.808944,-32.455328 19.423814,-33.674414 2.26043,-4.4817 3.0536,-8.335185 3.01556,-14.650804 -0.0317,-5.267576 -0.15049,-6.114664 -1.37717,-9.821478 -1.73403,-5.240003 -3.84566,-8.804988 -7.555,-12.754826 C 91.096152,9.8007318 69.755778,9.0629578 56.089048,21.847516 c -4.736019,4.430305 -7.817443,9.535563 -9.621467,15.940672 -1.209326,4.29364 -1.345466,12.254315 -0.276885,16.190617 1.685508,6.208899 4.469879,11.361693 8.416155,15.575061 1.311613,1.400398 1.697747,2.100585 1.446399,2.622809 -1.472437,3.059318 -21.570979,37.102105 -22.666041,38.391605 -2.095742,2.46788 -5.590191,3.96555 -9.276393,3.97577 -2.855465,0.008 -6.191808,-0.91959 -6.191808,-1.72132 8e-6,-0.18813 5.172553,-9.25033 11.494549,-20.138228 L 40.908099,72.888337 39.375091,70.491856 C 37.565805,67.663479 35.268,62.491197 34.552709,59.636832 34.273148,58.52124 33.923108,57.610206 33.774844,57.612308 c -0.148264,0.0025 -3.57532,5.720478 -7.615683,12.707479 -4.040362,6.987018 -7.979636,13.305834 -8.75393,14.041835 -3.350224,3.1845 -8.7285581,4.393678 -13.093777,2.94379 -1.2057225,-0.400473 -2.1922258,-0.791778 -2.1922258,-0.869571 0,-0.462597 37.9859368,-65.371649 39.4862668,-67.472759 2.247133,-3.14697 8.163747,-8.862687 11.329236,-10.9445558 19.144027,-12.5905804 43.70685,-10.1559213 59.616289,5.9091608 13.42415,13.555462 17.15338,34.574132 9.1517,51.580686 -0.88404,1.878894 -8.65289,15.522213 -17.26413,30.318486 -11.295259,19.408071 -16.162517,27.389451 -17.472136,28.650971 -3.301874,3.1806 -8.242722,4.3034 -12.787431,2.90592 z"
      id="path2" />
</svg>