<?xml version="1.0" encoding="UTF-8" standalone="no"?>
<svg
   viewBox="0 0 128 128"
   version="1.1"
   id="svg5"
   sodipodi:docname="apache-spark.svg"
   inkscape:version="1.3 (1:1.3+202307231459+0e150ed6c4)"
   xmlns:inkscape="http://www.inkscape.org/namespaces/inkscape"
   xmlns:sodipodi="http://sodipodi.sourceforge.net/DTD/sodipodi-0.dtd"
   xmlns:xlink="http://www.w3.org/1999/xlink"
   xmlns="http://www.w3.org/2000/svg"
   xmlns:svg="http://www.w3.org/2000/svg">
  <sodipodi:namedview
     id="namedview5"
     pagecolor="#ffffff"
     bordercolor="#111111"
     borderopacity="1"
     inkscape:showpageshadow="0"
     inkscape:pageopacity="0"
     inkscape:pagecheckerboard="1"
     inkscape:deskcolor="#d1d1d1"
     inkscape:zoom="5.9296875"
     inkscape:cx="64"
     inkscape:cy="63.915679"
     inkscape:window-width="1850"
     inkscape:window-height="1016"
     inkscape:window-x="838"
     inkscape:window-y="313"
     inkscape:window-maximized="1"
     inkscape:current-layer="svg5" />
  <g
     id="g6"
     transform="matrix(1.4558237,0,0,1.4558237,-15.340015,27.423292)">
    <g
       fill-rule="evenodd"
       id="g4">
      <path
         d="m 90.988,25.327 -0.152,-0.322 -3.313,-6.28 a 0.38,0.38 0 0 1 0.055,-0.514 l 5.24,-6.157 a 0.57,0.57 0 0 0 0.14,-0.277 l -1.53,0.4 -6.352,1.7 C 84.879,13.93 84.789,13.872 84.691,13.709 L 81.07,7.68 A 0.82,0.82 0 0 0 80.807,7.387 l -0.3,1.605 -1.007,5.67 -0.104,0.613 c -0.017,0.195 -0.117,0.267 -0.293,0.323 l -7.482,2.365 c -0.1,0.035 -0.216,0.08 -0.334,0.186 l 6.15,2.444 -0.18,0.142 -3.825,2.476 c -0.152,0.1 -0.273,0.113 -0.444,0.036 l -4.578,-2.04 c -0.685,-0.306 -1.3,-0.712 -1.78,-1.3 -1.085,-1.327 -0.87,-2.836 0.575,-3.758 a 6.82,6.82 0 0 1 1.545,-0.703 l 7.35,-2.335 c 0.205,-0.064 0.3,-0.156 0.34,-0.38 l 1.006,-5.67 c 0.182,-1 0.28,-2.046 0.77,-2.972 0.2,-0.356 0.415,-0.704 0.684,-1.003 0.973,-1.08 2.332,-1.122 3.36,-0.093 0.347,0.347 0.646,0.757 0.904,1.178 l 3.36,5.573 a 0.36,0.36 0 0 0 0.492,0.2 l 8.2,-2.178 c 0.565,-0.15 1.136,-0.204 1.715,-0.095 1.262,0.236 1.813,1.197 1.386,2.415 -0.194,0.555 -0.53,1.024 -0.906,1.467 L 91.7,18.3 c -0.157,0.183 -0.16,0.316 -0.052,0.52 l 3.414,6.473 c 0.272,0.517 0.48,1.053 0.486,1.646 0.014,1.35 -0.973,2.453 -2.314,2.65 -0.75,0.1 -1.45,-0.05 -2.152,-0.267 l -5.15,-1.568 a 0.29,0.29 0 0 1 -0.248,-0.282 l -0.622,-3.624 c -0.006,-0.033 0.004,-0.07 0.01,-0.143 l 5.915,1.632"
         fill="#e25a1c"
         id="path1" />
      <g
         fill="#3c3a3e"
         id="g3">
        <path
           d="m 87.645,42.94 -4.64,-0.004 a 0.45,0.45 0 0 1 -0.434,-0.233 l -5.732,-8.68 -1.17,8.894 h -4.05 l 0.14,-1.156 2.33,-17.7 a 0.37,0.37 0 0 1 0.14,-0.24 l 4.2,-2.7 c 0.02,-0.013 0.05,-0.015 0.12,-0.035 l -1.263,9.626 0.05,0.034 6.628,-7.347 0.652,3.764 c 0.034,0.184 -0.015,0.3 -0.138,0.427 l -4.246,4.462 -0.2,0.2 0.13,0.206 7.32,10.27 c 0.044,0.062 0.108,0.1 0.163,0.166 v 0.054 m -48,-8.898 c -0.062,-0.316 -0.106,-0.78 -0.246,-1.212 -0.678,-2.092 -2.825,-3.24 -5.047,-2.723 -2.438,0.567 -4.18,2.484 -4.432,4.97 -0.187,1.84 0.804,3.613 2.647,4.278 1.484,0.536 2.913,0.312 4.24,-0.484 1.76,-1.055 2.713,-2.622 2.84,-4.83 z m -10.705,7.767 -0.347,2.598 -0.438,3.386 c -0.017,0.132 -0.057,0.2 -0.198,0.2 L 24.62,47.996 c -0.025,0 -0.05,-0.014 -0.1,-0.03 l 0.203,-1.6 0.74,-5.615 0.875,-6.416 c 0.646,-3.765 3.84,-7 7.588,-7.817 2.173,-0.47 4.252,-0.252 6.15,0.97 1.892,1.22 2.977,3 3.224,5.215 0.35,3.147 -0.808,5.76 -3.044,7.92 -1.467,1.42 -3.224,2.32 -5.25,2.625 -2.087,0.315 -4.05,-0.033 -5.8,-1.264 C 29.141,41.939 29.072,41.9 28.961,41.83"
           id="path2" />
        <path
           d="m 27.126,23.926 -3.658,2.723 -0.573,-0.898 c -0.524,-0.732 -1.175,-1.28 -2.12,-1.346 a 2.37,2.37 0 0 0 -1.996,0.785 c -0.48,0.52 -0.542,1.257 -0.094,1.843 0.493,0.645 1.033,1.258 1.584,1.855 l 2.776,2.938 c 0.826,0.906 1.484,1.922 1.687,3.16 0.242,1.472 -0.052,2.874 -0.748,4.168 -1.3,2.394 -3.318,3.784 -5.997,4.218 -1.183,0.192 -2.363,0.154 -3.518,-0.186 -1.532,-0.45 -2.6,-1.455 -3.284,-2.873 -0.242,-0.5 -0.428,-1.03 -0.648,-1.568 l 3.967,-2.123 0.12,0.288 c 0.225,0.45 0.4,0.93 0.7,1.346 0.828,1.23 2.166,1.606 3.523,0.997 a 3.86,3.86 0 0 0 0.97,-0.63 c 0.874,-0.776 1.038,-1.857 0.4,-2.834 -0.372,-0.56 -0.837,-1.064 -1.3,-1.567 l -3.265,-3.6 c -0.73,-0.843 -1.224,-1.827 -1.38,-2.956 -0.17,-1.233 0.075,-2.397 0.717,-3.435 1.595,-2.58 3.914,-3.923 6.98,-3.812 1.748,0.063 3.14,0.88 4.22,2.24 l 0.947,1.255 m 29.612,13.866 -0.595,4.508 c -0.01,0.075 -0.07,0.176 -0.133,0.206 -3.018,1.398 -6.993,1.203 -9.472,-1.612 -1.332,-1.512 -1.9,-3.307 -1.807,-5.304 0.193,-4.623 4.026,-8.658 8.6,-9.222 2.678,-0.33 5.026,0.394 6.84,2.474 1.236,1.417 1.807,3.1 1.723,4.977 -0.056,1.234 -0.25,2.462 -0.403,3.7 l -0.685,5.214 c -0.008,0.062 -0.02,0.123 -0.035,0.2 h -3.6 l 0.143,-1.18 0.778,-6.022 c 0.143,-1.252 0.053,-2.495 -0.52,-3.655 -0.6,-1.233 -1.63,-1.885 -2.974,-2.027 -2.78,-0.294 -5.426,1.638 -6.02,4.374 -0.392,1.806 0.226,3.538 1.664,4.495 1.402,0.933 2.904,0.936 4.432,0.33 0.775,-0.306 1.435,-0.792 2.063,-1.447 m 15.206,-11.08 -0.493,3.744 c -0.763,0 -1.512,-0.004 -2.26,0.002 -0.606,0.005 -1.16,0.396 -1.342,0.963 -0.07,0.222 -0.098,0.46 -0.128,0.7 l -1.134,8.625 -0.283,2.186 h -3.76 l 0.206,-1.622 0.736,-5.588 0.656,-4.833 c 0.338,-2.153 2.48,-4.064 4.652,-4.16 l 3.148,-0.008"
           id="path3" />
      </g>
    </g>
    <g
       fill="#3c3a3e"
       id="g5">
      <use
         xlink:href="#A"
         id="use4" />
      <path
         d="m 38.786,19.52 h -0.552 l -0.186,1.045 H 38.6 c 0.333,0 0.6,-0.22 0.6,-0.632 0,-0.273 -0.167,-0.413 -0.413,-0.413 z m -1.337,-0.9 h 1.45 c 0.76,0 1.3,0.452 1.3,1.23 0,0.978 -0.692,1.637 -1.677,1.637 h -0.625 l -0.293,1.657 H 36.66 l 0.798,-4.525"
         id="path4" />
      <use
         xlink:href="#A"
         x="11.24"
         id="use5" />
      <path
         d="m 50.607,22.974 a 2.48,2.48 0 0 1 -1.025,0.233 c -1.197,0 -1.95,-0.9 -1.95,-2.023 0,-1.437 1.2,-2.648 2.65,-2.648 0.36,0 0.685,0.086 0.95,0.233 l -0.133,1.085 c -0.2,-0.22 -0.52,-0.373 -0.918,-0.373 -0.825,0 -1.557,0.746 -1.557,1.6 0,0.66 0.412,1.17 1.065,1.17 a 1.69,1.69 0 0 0 1.044,-0.366 l -0.127,1.078 m 5.776,-1.653 h -1.97 l -0.32,1.823 h -0.944 l 0.798,-4.525 h 0.945 l -0.32,1.8 h 1.97 l 0.32,-1.8 h 0.945 l -0.798,4.525 h -0.945 l 0.32,-1.823 m 3.464,1.824 0.798,-4.525 h 2.5 l -0.16,0.9 H 61.43 l -0.16,0.878 h 1.437 l -0.16,0.912 H 61.1 l -0.16,0.912 h 1.564 l -0.16,0.912 h -2.508"
         id="path5" />
    </g>
  </g>
  <defs
     id="defs5">
    <path
       id="A"
       d="M32.16 21.258h.932l-.22-1.4zm1.078.912h-1.55l-.493.965h-1.098L32.52 18.6h1.058l.825 4.525h-1.018l-.146-.965" />
  </defs>
</svg>
