<?xml version="1.0" encoding="UTF-8" standalone="no"?>
<!-- Uploaded to: SVG Repo, www.svgrepo.com, Generator: SVG Repo Mixer Tools -->

<svg
   viewBox="0 0 128 128"
   version="1.1"
   preserveAspectRatio="xMidYMid"
   id="svg1"
   sodipodi:docname="impala.svg"
   inkscape:version="1.3 (1:1.3+202307231459+0e150ed6c4)"
   xmlns:inkscape="http://www.inkscape.org/namespaces/inkscape"
   xmlns:sodipodi="http://sodipodi.sourceforge.net/DTD/sodipodi-0.dtd"
   xmlns="http://www.w3.org/2000/svg"
   xmlns:svg="http://www.w3.org/2000/svg">
  <defs
     id="defs1" />
  <sodipodi:namedview
     id="namedview1"
     pagecolor="#ffffff"
     bordercolor="#111111"
     borderopacity="1"
     inkscape:showpageshadow="0"
     inkscape:pageopacity="0"
     inkscape:pagecheckerboard="1"
     inkscape:deskcolor="#d1d1d1"
     inkscape:zoom="4.1929222"
     inkscape:cx="64.632727"
     inkscape:cy="64.632727"
     inkscape:window-width="1850"
     inkscape:window-height="1016"
     inkscape:window-x="838"
     inkscape:window-y="313"
     inkscape:window-maximized="1"
     inkscape:current-layer="svg1" />
  <g
     id="g1"
     transform="matrix(0.20903878,0,0,0.20903878,37.243028,0)">
    <path
       d="m 193.43928,15.577557 c 3.461,4.175999 6.516,8.261999 9.755,12.603 42.171,56.521999 54.844,124.223003 42.573,193.165003 -0.78,4.384 -3.09,4.573 -6.364,7.732 -20.25,19.539 -39.743,39.789 -51.848,65.505 -5.087,10.809 -7.671,22.947 -10.146,34.742 -0.74,3.528 1.775,10.155 4.543,11.362 3.108,1.355 9.634,-0.494 12.171,-3.251 12.905,-14.023 25.332,-28.525 37.263,-43.392 8.141,-10.144 15.193,-21.162 23.499,-31.412 2.247,22.43 1.858,44.475 -8.419,64.577 -4.325,12.802 -9.897,14.317 -16.851,22.031 -7.911,5.933 -17.027,14.958 -22.629,22.492 -8.753,14.029 -8.287,25.364 4.83,35.192 0.824,0.504 5.146,2.575 6.546,2.886 -2.967,1.986 -5.578,2.633 -12.377,4.611 -0.242,10.192 -8.736,16.987 -11.221,21.751 -1.174,4.567 -1.612,5.257 -1.984,10.349 -3.206,43.808 -9.676,91.216 -25.972,132.447 -5.509,13.938 -12.149,22.667 -25.945,28.445 -1.651,0.692 -9.38,4.702 -10.374,4.914 3.396,-5.394 4.039,-13.359 -0.461,-19.473 -3.229,-4.387 -16.118,-4.142 -20.287,-8.155 0.794,-0.182 6.325,0.236 7.112,0.262 6.572,0.226 12.79,-0.107 14.718,-8.199 1.546,-6.492 -1.911,-12.975 -8.45,-17.524 -4.444,-3.093 -7.509,-3.971 -11.305,-7.845 -0.918,-0.937 -2.304,-6.091 -1.343,-9.49 0.131,-0.464 0.687,-0.638 1.046,-0.316 4.286,3.843 9.878,7.914 13.458,12.194 2.297,2.102 5.195,4.514 7.196,4.489 2.114,-0.026 3.331,-2.596 5.803,-4.341 5.691,-5.065 7.709,-7.532 11.293,-14.454 0.621,-3.807 -0.73,-10.268 -1.92,-14.958 -4.982,-19.619 -6.557,-40.029 -1.437,-59.714 3.669,-14.108 8.919,-28.515 16.755,-40.666 12.532,-19.433 13.111,-37.213 -0.019,-55.823 -22.442,-31.809 -19.86,-63.956 -1.676,-96.556 12.958,-23.233 29.63,-43.454 48.089,-62.451 3.821,-3.932 6.314,-4.333 7.369,-9.716 13.515,-62.299 5.201,-125.481004 -24.557,-180.882004 -1.318,-2.389 -12.44,-17.83299947 -12.608,-18.70599947 0.35,-0.23500001 13.824,15.80999947 14.174,15.57500047 z M 71.741178,352.46966 c -0.721,-9.112 -0.81,-17.709 -2.168,-26.102 -5.421,-33.498 -23.178,-60.454 -45.848,-84.682 -1.801,-1.925 -3.462,-4.106 -5.597,-5.571 -11.3240002,-7.771 -14.7770002,-19.198 -16.2440002,-32.1 -8.175,-71.901 10.0960002,-135.675003 57.8640002,-190.532004 0.318,-0.365999 9.776,-12.70599948 11.318,-13.31499947 -13.395,23.34499947 -29.337,46.14699947 -36.897,85.16799947 -7.319,37.779004 -7.397,75.247004 0.506,112.762004 0.807,3.83 3.615,7.639 6.414,10.585 19.841,20.887 38.522,42.783 49.906,69.461 5.459,12.79 9.142002,26.844 10.724002,40.658 2.146,18.741 -9.480002,30.81 -29.978002,33.668 z m -20.1703,58.9684 c 18.106,-12.047 31.533,-8.303 39.11,8.113 8.061,17.462 13.185002,42.644 14.068002,61.888 -4.56,-11.154 -10.893002,-28.827 -15.339002,-40.026 -2.09,-5.265 -4.85,-9.09 -11.324,-8.972 -6.052,0.11 -10.041,-3.434 -11.351,-9.101 -0.602,-2.604 -1.323,-6.504 -2.903,-8.267 -2.633,-2.938 -6.985,-2.996 -12.261,-3.635 z m -6.3152,-57.2598 c -23.631,-15.817 -40.7260002,-36.082 -43.9630002,-66.286 13.0060002,5.58 36.5920002,40.667 43.9630002,66.286 z"
       fill="#2c6791"
       id="path1" />
  </g>
</svg>
