<svg
   id="svg2"
   version="1.1"
   viewBox="0 0 128 128">
   <defs
      id="defs4">
      <linearGradient
         id="linearGradient3736"
         gradientUnits="userSpaceOnUse"
         gradientTransform="matrix(0.4226,-0.9063,0.9063,0.4226,4226.9761,-6584.5938)"
         x1="-7708.7969"
         y1="-803.36011"
         x2="-7633.1528"
         y2="-714.90741" />
      <linearGradient
         id="linearGradient3738"
         gradientUnits="userSpaceOnUse"
         gradientTransform="matrix(0.4226,-0.9063,0.9063,0.4226,4226.9761,-6584.5938)"
         x1="-8268.6387"
         y1="-813.12323"
         x2="-7728.9585"
         y2="-813.12323" />
      <linearGradient
         id="linearGradient3740"
         gradientUnits="userSpaceOnUse"
         gradientTransform="matrix(0.4226,-0.9063,0.9063,0.4226,4226.9761,-6584.5938)"
         x1="-8203.4922"
         y1="-758.99402"
         x2="-7881.895"
         y2="-758.99402" />
      <linearGradient
         id="linearGradient3742"
         gradientUnits="userSpaceOnUse"
         gradientTransform="matrix(0.4226,-0.9063,0.9063,0.4226,4226.9761,-6584.5938)"
         x1="-8238.3281"
         y1="-818.15222"
         x2="-7698.647"
         y2="-818.15222" />
      <linearGradient
         id="linearGradient3744"
         gradientUnits="userSpaceOnUse"
         gradientTransform="matrix(0.4226,-0.9063,0.9063,0.4226,4226.9761,-6584.5938)"
         x1="-8198.9678"
         y1="-810.85059"
         x2="-7915.3501"
         y2="-810.85059" />
      <linearGradient
         id="linearGradient3746"
         gradientUnits="userSpaceOnUse"
         gradientTransform="matrix(0.4226,-0.9063,0.9063,0.4226,4226.9761,-6584.5938)"
         x1="-8238.3281"
         y1="-762.29712"
         x2="-7698.647"
         y2="-762.29712" />
      <linearGradient
         id="linearGradient3748"
         gradientUnits="userSpaceOnUse"
         gradientTransform="matrix(0.4226,-0.9063,0.9063,0.4226,4226.9761,-6584.5938)"
         x1="-8271.8057"
         y1="-765.07068"
         x2="-7732.125"
         y2="-765.07068" />
      <linearGradient
         id="linearGradient3750"
         gradientUnits="userSpaceOnUse"
         gradientTransform="matrix(0.4226,-0.9063,0.9063,0.4226,4226.9761,-6584.5938)"
         x1="-8238.3281"
         y1="-745.68481"
         x2="-7698.647"
         y2="-745.68481" />
      <linearGradient
         id="linearGradient3752"
         gradientUnits="userSpaceOnUse"
         gradientTransform="matrix(0.4226,-0.9063,0.9063,0.4226,4226.9761,-6584.5938)"
         x1="-8238.3281"
         y1="-747.58557"
         x2="-7698.647"
         y2="-747.58557" />
      <linearGradient
         id="linearGradient3754"
         gradientUnits="userSpaceOnUse"
         gradientTransform="matrix(0.4226,-0.9063,0.9063,0.4226,4226.9761,-6584.5938)"
         x1="-7935.1431"
         y1="-747.9668"
         x2="-7815.856"
         y2="-747.9668" />
      <linearGradient
         id="linearGradient9387"
         x1="580.10394"
         y1="215.96693"
         x2="634.46875"
         y2="215.96693"
         gradientUnits="userSpaceOnUse" />
      <linearGradient
         id="linearGradient9389"
         x1="496.00687"
         y1="216.75172"
         x2="574.69977"
         y2="216.75172"
         gradientUnits="userSpaceOnUse" />
      <linearGradient
         id="linearGradient9391"
         x1="433.14154"
         y1="208.23689"
         x2="491.82263"
         y2="208.23689"
         gradientUnits="userSpaceOnUse" />
      <linearGradient
         id="linearGradient9393"
         x1="351.91241"
         y1="216.75172"
         x2="430.60532"
         y2="216.75172"
         gradientUnits="userSpaceOnUse" />
      <linearGradient
         id="linearGradient9395"
         x1="225.43741"
         y1="203.29279"
         x2="344.31088"
         y2="203.29279"
         gradientUnits="userSpaceOnUse" />
   </defs>
   <g
      id="layer1"
      transform="matrix(0.23833844,0,0,0.23833844,-37.422862,18.372403)">
      <g
         id="jmeter">
         <path
            id="path3718"
            style="font-style:normal;font-variant:normal;font-weight:bold;font-stretch:normal;font-size:160.722px;line-height:125%;font-family:'Droid Sans';-inkscape-font-specification:'Droid Sans Bold';letter-spacing:0px;word-spacing:0px;fill:#d22128;fill-opacity:1;stroke:#d22128;stroke-width:3;stroke-linejoin:round;stroke-miterlimit:4;stroke-dasharray:none;stroke-opacity:1"
            d="m 173.97572,294.40537 c -3.4007,-3e-5 -6.38284,-0.18315 -8.94645,-0.54934 -2.5636,-0.31394 -4.73481,-0.70633 -6.51365,-1.17717 v -20.24724 c 1.93579,0.41854 3.97621,0.78477 6.12126,1.09869 2.09274,0.3139 4.39475,0.47085 6.90603,0.47087 2.40665,-2e-5 4.63018,-0.26161 6.6706,-0.78478 2.09274,-0.5232 3.89772,-1.43877 5.41496,-2.74672 1.56955,-1.25565 2.77287,-2.956 3.60998,-5.10105 0.8894,-2.14506 1.3341,-4.83945 1.33412,-8.0832 V 145.92561 h 24.32808 v 110.57505 c -4e-5,6.59212 -0.96793,12.26866 -2.90368,17.02965 -1.8835,4.76096 -4.55173,8.68484 -8.00472,11.77165 -3.40072,3.13908 -7.48156,5.44109 -12.24252,6.90604 -4.76099,1.46488 -10.01899,2.19734 -15.77401,2.19737" />
         <path
            style="font-style:normal;font-variant:normal;font-weight:bold;font-stretch:normal;font-size:160.722px;line-height:125%;font-family:'Droid Sans';-inkscape-font-specification:'Droid Sans Bold';letter-spacing:0px;word-spacing:0px;fill:#000000;fill-opacity:1;stroke:#000000;stroke-width:3;stroke-linejoin:round;stroke-miterlimit:4;stroke-dasharray:none;stroke-opacity:1"
            d="m 225.9375,145.9375 v 114.71875 h 21.75 v -53.375 c -1e-4,-1.46487 -0.0414,-3.1063 -0.0937,-4.9375 -3e-5,-1.83108 -0.0516,-3.73059 -0.15625,-5.71875 -0.0524,-1.98803 -0.11415,-3.99076 -0.21875,-6.03125 -0.0524,-2.04035 -0.1454,-4.0329 -0.25,-5.96875 -0.20931,-4.49931 -0.46738,-9.15537 -0.78125,-13.96875 h 0.71875 l 25.1875,90 h 22.34375 L 321.5938,170.8125 h 0.625 c -0.15707,4.76106 -0.32209,9.32408 -0.53125,13.71875 -0.0524,1.88354 -0.14547,3.82447 -0.25,5.8125 -0.0524,1.98817 -0.10405,3.93929 -0.15625,5.875 -0.0524,1.93585 -0.10405,3.77355 -0.15625,5.5 -1.1e-4,1.72657 -1.1e-4,3.26478 0,4.625 v 54.3125 h 22.6875 V 145.9375 h -33.125 l -26.375,87.71875 H 283.8438 L 259.06255,145.9375 h -33.125 z m 227.78125,8.3125 -6.90625,18.5 -13.15625,8.03125 v 10.125 h 11.4375 v 42.28125 c -10e-6,5.65041 0.67095,10.35809 2.03125,14.125 1.41258,3.71462 3.34333,6.68782 5.75,8.9375 2.40662,2.19738 5.26641,3.76683 8.5625,4.65625 3.29602,0.88941 6.83696,1.3125 10.65625,1.3125 3.92384,0 7.54764,-0.37147 10.84375,-1.15625 3.34832,-0.73246 6.12525,-1.69275 8.375,-2.84375 v -17.8125 c -2.19743,0.7848 -4.355,1.44558 -6.5,1.96875 -2.09279,0.5232 -4.33322,0.78127 -6.6875,0.78125 -2.7206,2e-5 -4.91961,-0.81561 -6.59375,-2.4375 -1.67423,-1.62185 -2.50004,-4.13053 -2.5,-7.53125 V 190.90625 H 490.375 V 172.9375 H 469.03125 V 154.25 Z m -61.4375,17.03125 c -5.96434,9e-5 -11.3946,0.97055 -16.3125,2.90625 -4.86564,1.93586 -9.05719,4.81602 -12.5625,8.6875 -3.45304,3.81932 -6.15798,8.62004 -8.09375,14.375 -1.9358,5.75509 -2.90626,12.46548 -2.90625,20.15625 -10e-6,7.58621 1.0635,14.22463 3.15625,19.875 2.14504,5.59809 5.11824,10.25416 8.9375,13.96875 3.81923,3.6623 8.37206,6.38761 13.65625,8.21875 5.28412,1.83114 11.0655,2.75 17.34375,2.75 3.24369,0 6.21688,-0.11341 8.9375,-0.375 2.7205,-0.20928 5.27061,-0.57057 7.625,-1.09375 2.35426,-0.52318 4.56344,-1.17379 6.65625,-1.90625 2.14498,-0.78478 4.28218,-1.71381 6.375,-2.8125 V 237.5 c -2.30209,1.15103 -4.5527,2.17311 -6.75,3.0625 -2.19745,0.83711 -4.43788,1.54951 -6.6875,2.125 -2.24976,0.57552 -4.56216,1.02985 -6.96875,1.34375 -2.35439,0.26161 -4.86307,0.37502 -7.53125,0.375 -3.19148,2e-5 -6.05126,-0.47468 -8.5625,-1.46875 -2.45901,-0.99403 -4.59621,-2.41883 -6.375,-4.25 -1.72655,-1.88344 -3.06849,-4.17549 -4.0625,-6.84375 -0.94177,-2.72053 -1.4579,-5.74534 -1.5625,-9.09375 h 53.5 v -11.625 c -9e-5,-6.38279 -0.87751,-12.0195 -2.65625,-16.9375 -1.72659,-4.97018 -4.23527,-9.16173 -7.53125,-12.5625 -3.24381,-3.40062 -7.2289,-5.9609 -11.9375,-7.6875 -4.6564,-1.77873 -9.88021,-2.65616 -15.6875,-2.65625 z m 144.09375,0 c -5.96434,9e-5 -11.39461,0.97055 -16.3125,2.90625 -4.86565,1.93586 -9.05719,4.81602 -12.5625,8.6875 -3.45303,3.81932 -6.15798,8.62004 -8.09375,14.375 -1.93579,5.75509 -2.90625,12.46548 -2.90625,20.15625 0,7.58621 1.0635,14.22463 3.15625,19.875 2.14504,5.59809 5.11823,10.25416 8.9375,13.96875 3.81922,3.6623 8.37206,6.38761 13.65625,8.21875 5.28413,1.83114 11.06549,2.75 17.34375,2.75 3.24369,0 6.21688,-0.11341 8.9375,-0.375 2.7205,-0.20928 5.2706,-0.57057 7.625,-1.09375 2.35426,-0.52318 4.56344,-1.17379 6.65625,-1.90625 2.14498,-0.78478 4.28218,-1.71381 6.375,-2.8125 V 237.5 c -2.30209,1.15103 -4.5527,2.17311 -6.75,3.0625 -2.19745,0.83711 -4.43788,1.54951 -6.6875,2.125 -2.24976,0.57552 -4.56216,1.02985 -6.96875,1.34375 -2.35438,0.26161 -4.86307,0.37502 -7.53125,0.375 -3.19148,2e-5 -6.05126,-0.47468 -8.5625,-1.46875 -2.45901,-0.99403 -4.56496,-2.41883 -6.34375,-4.25 -1.72654,-1.88344 -3.09973,-4.17549 -4.09375,-6.84375 -0.94176,-2.72053 -1.4579,-5.74534 -1.5625,-9.09375 h 53.5 v -11.625 c -9e-5,-6.38279 -0.87751,-12.0195 -2.65625,-16.9375 -1.72659,-4.97018 -4.23526,-9.16173 -7.53125,-12.5625 -3.24381,-3.40062 -7.22891,-5.9609 -11.9375,-7.6875 -4.6564,-1.77873 -9.8802,-2.65616 -15.6875,-2.65625 z m 89.96875,0 c -2.92989,9e-5 -5.5418,0.36138 -7.84375,1.09375 -2.24975,0.68023 -4.2939,1.66088 -6.125,2.96875 -1.77887,1.25573 -3.37887,2.82518 -4.84375,4.65625 -1.46495,1.83122 -2.83814,3.84414 -4.09375,6.09375 H 602.25 l -3.53125,-13.15625 h -18.125 v 87.71875 h 23.9375 V 216 c -4e-5,-4.13311 0.50592,-7.61225 1.5,-10.4375 1.04633,-2.87746 2.48131,-5.17968 4.3125,-6.90625 1.88342,-1.77876 4.12385,-3.05891 6.6875,-3.84375 2.61587,-0.78471 5.4444,-1.18743 8.53125,-1.1875 0.52312,1e-4 1.18391,0.0414 1.96875,0.0937 0.78471,6e-5 1.55891,0.0517 2.34375,0.15625 0.83703,0.0524 1.64248,0.14543 2.375,0.25 0.73239,0.1047 1.30013,0.20793 1.71875,0.3125 V 171.9687 c -0.31398,-0.10455 -0.7785,-0.16635 -1.40625,-0.21875 -0.57557,-0.10455 -1.23636,-0.1976 -1.96875,-0.25 -0.68021,-0.10456 -1.40278,-0.15616 -2.1875,-0.15625 -0.73252,-0.0522 -1.43474,-0.0624 -2.0625,-0.0625 z M 392.4375,188.3125 c 2.51123,7e-5 4.71023,0.46459 6.59375,1.40625 1.88341,0.9418 3.46305,2.23213 4.71875,3.90625 1.25558,1.62194 2.18461,3.56287 2.8125,5.8125 0.62776,2.24975 0.97885,4.70681 1.03125,7.375 H 377.0625 c 0.41852,-6.38279 2.00834,-11.04904 4.78125,-14.03125 2.82516,-2.98208 6.35591,-4.46868 10.59375,-4.46875 z m 144.09375,0 c 2.51123,7e-5 4.71024,0.46459 6.59375,1.40625 1.88341,0.9418 3.46305,2.23213 4.71875,3.90625 1.25558,1.62194 2.18462,3.56287 2.8125,5.8125 0.62776,2.24975 0.97885,4.70681 1.03125,7.375 h -30.53125 c 0.41852,-6.38279 2.00834,-11.04904 4.78125,-14.03125 2.82516,-2.98208 6.35591,-4.46868 10.59375,-4.46875 z"
            id="path3720" />
      </g>
      <g
         style="font-style:normal;font-variant:normal;font-weight:bold;font-stretch:normal;font-size:35.2646px;line-height:125%;font-family:Arial;-inkscape-font-specification:'Sans Bold';letter-spacing:0px;word-spacing:0px;fill:#d22128;fill-opacity:1;stroke:none"
         id="tm">
         <path
            d="m 658.02758,171.06244 h -5.32069 V 150.3307 h -6.31939 v -4.44251 h 17.94225 v 4.44251 h -6.30217 v 20.73174"
            style="font-family:'Droid Sans';-inkscape-font-specification:'Droid Sans Bold';fill:#d22128"
            id="path3914" />
         <path
            d="m 678.32884,171.06244 -5.52732,-19.75025 h -0.15497 c 0.0689,1.05612 0.12627,2.07778 0.17219,3.06499 0.0229,0.42475 0.0402,0.86097 0.0517,1.30865 0.023,0.44771 0.0402,0.88966 0.0517,1.32586 0.023,0.43623 0.0344,0.85523 0.0344,1.25699 0.0115,0.4018 0.0172,0.76339 0.0172,1.08481 v 11.70895 h -4.76967 v -25.17425 h 7.26643 l 5.44122,19.2509 h 0.10332 l 5.7856,-19.2509 h 7.26644 v 25.17425 h -4.97631 v -11.91558 c -2e-5,-0.29845 -2e-5,-0.6371 0,-1.01593 0.0115,-0.3788 0.0229,-0.78058 0.0344,-1.20533 0.0115,-0.42472 0.0229,-0.8552 0.0344,-1.29143 0.0229,-0.4362 0.0401,-0.86094 0.0517,-1.27421 0.0459,-0.96425 0.0861,-1.96869 0.12053,-3.01333 h -0.13775 l -5.95779,19.71581 h -4.90743"
            style="font-family:'Droid Sans';-inkscape-font-specification:'Droid Sans Bold';fill:#d22128"
            id="path3916" />
      </g>
      <g
         id="apache"
         transform="matrix(0.34856159,0,0,0.34856159,107.16834,31.623772)">
         <g
            id="g8128">
            <path
               style="fill:#d22128"
               d="m 232.6,277.3 49.3,-117.8 h 9.5 l 49.3,117.8 H 328.3 L 313,240.5 h -53 l -15.1,36.8 z m 54.1,-104.2 -24.2,58.2 h 47.8 z"
               id="path8130" />
            <path
               style="fill:#d22128"
               d="M 353.3,277.3 V 159.5 h 48.8 c 20.2,0 34.8,18.7 34.8,37 0,19.2 -13.6,37.3 -33.8,37.3 h -38.3 v 43.5 z m 11.5,-53.8 h 37.7 c 13.9,0 22.9,-12.8 22.9,-27 0,-14.8 -10.9,-26.7 -23.9,-26.7 h -36.7 z"
               id="path8132" />
            <path
               style="fill:#d22128"
               d="m 430.5,277.3 49.3,-117.8 h 9.5 l 49.3,117.8 H 526 l -15.3,-36.8 h -52.9 l -15.1,36.8 z m 54.1,-104.2 -24.2,58.2 h 47.8 z"
               id="path8134" />
            <path
               style="fill:#d22128"
               d="m 594.2,158.8 c 20.9,0 36.2,10.6 43.5,25.7 l -9.3,5.6 c -7.5,-15.6 -22.1,-20.9 -34.8,-20.9 -28.2,0 -43.6,25.2 -43.6,48.9 0,26 19.1,49.6 44.1,49.6 13.3,0 28.9,-6.6 36.3,-21.9 l 9.6,5 c -7.6,17.6 -28.5,27.4 -46.6,27.4 -32.3,0 -55.1,-30.9 -55.1,-60.7 0,-28.3 20.4,-58.7 55.9,-58.7 z"
               id="path8136" />
            <path
               style="fill:#d22128"
               d="m 749.1,159.5 v 117.8 h -11.6 v -55.1 h -69.8 v 55.1 H 656.3 V 159.5 h 11.4 v 52.4 h 69.8 v -52.4 z"
               id="path8138" />
            <path
               style="fill:#d22128"
               d="m 854.8,267 v 10.3 H 775.7 V 159.5 h 77.6 v 10.3 h -66.2 v 42.5 h 57.7 v 9.8 H 787.1 V 267 Z"
               id="path8140" />
         </g>
      </g>
   </g>
</svg>