<svg
   viewBox="0 0 128 128"
   id="svg3">
  <g
     id="g3"
     transform="matrix(0.49999951,0,0,0.49999951,9.1284688e-5,-0.1154774)">
    <path
       d="M 201.685,25.373 C 170.902,-1.2 102.79,-14.364 51.748,23.787 3.863,55.887 1.495,114.558 1.495,114.558 c 8.156,32.1 40.518,62.883 102.873,47.886 -7.366,-43.15 7.072,-152.33 97.317,-137.07 z"
       fill="#00acd2"
       id="path1" />
    <path
       d="M 169.62,129.733 C 135.935,157.688 33.402,200.345 1.495,114.56 c -7.622,39.946 13.529,106.431 72.089,131.56 51.742,25.42 105.664,-4.02 105.664,-4.02 23.72,-23.113 34.538,-65.864 -9.628,-112.367"
       fill="#c8e9eb"
       id="path2" />
    <path
       d="m 108.779,90.524 c 41.052,15.195 128.807,81.05 70.469,151.576 38.405,-13.373 83.44,-64.54 75.922,-127.818 -3.856,-57.52 -53.484,-88.907 -53.484,-88.907 -31.876,-8.986 -74.717,3.649 -92.907,65.149"
       fill="#662d91"
       id="path3" />
  </g>
</svg>
