<?xml version="1.0" encoding="UTF-8" standalone="no"?>
<svg
   viewBox="0 0 128 128"
   id="svg1"
   version="1.1"
   sodipodi:docname="astro.svg"
   inkscape:version="1.3 (1:1.3+202307231459+0e150ed6c4)"
   xmlns:inkscape="http://www.inkscape.org/namespaces/inkscape"
   xmlns:sodipodi="http://sodipodi.sourceforge.net/DTD/sodipodi-0.dtd"
   xmlns="http://www.w3.org/2000/svg"
   xmlns:svg="http://www.w3.org/2000/svg">
  <defs
     id="defs1" />
  <sodipodi:namedview
     id="namedview1"
     pagecolor="#ffffff"
     bordercolor="#111111"
     borderopacity="1"
     inkscape:showpageshadow="0"
     inkscape:pageopacity="0"
     inkscape:pagecheckerboard="1"
     inkscape:deskcolor="#d1d1d1"
     inkscape:zoom="5.9296875"
     inkscape:cx="64"
     inkscape:cy="63.915679"
     inkscape:window-width="1850"
     inkscape:window-height="1016"
     inkscape:window-x="838"
     inkscape:window-y="313"
     inkscape:window-maximized="1"
     inkscape:current-layer="svg1" />
  <path
     d="m 15.569273,77.708754 a 36.005889,36.005889 0 0 0 -2.743489,12.585514 15.659948,15.659948 0 0 0 2.642766,7.44867 35.622185,35.622185 0 0 0 10.038674,8.062592 l 24.59547,16.37459 a 35.166535,35.166535 0 0 0 10.072248,5.60209 15.535244,15.535244 0 0 0 7.194461,0 35.401554,35.401554 0 0 0 10.15379,-5.56372 l 24.859267,-16.38418 a 36.02987,36.02987 0 0 0 10.15379,-8.096169 15.544836,15.544836 0 0 0 2.63797,-7.496635 36.044259,36.044259 0 0 0 -2.81544,-12.676641 L 90.617112,9.1407229 A 19.055734,19.055734 0 0 0 88.027109,2.9055216 8.3120029,8.3120029 0 0 0 84.669688,0.45940416 19.050938,19.050938 0 0 0 77.95486,-0.12574553 H 49.647046 a 18.859086,18.859086 0 0 0 -6.714832,0.5995386 8.216077,8.216077 0 0 0 -3.357416,2.45571013 18.897456,18.897456 0 0 0 -2.566026,6.235201 L 15.569273,77.71355 Z M 79.072397,14.397477 a 15.966912,15.966912 0 0 1 2.115174,5.242366 L 99.854806,80.955854 A 77.54672,77.54672 0 0 0 77.537582,73.411261 L 65.407719,32.354857 a 1.5875782,1.5875782 0 0 0 -2.460512,-0.810576 1.5492077,1.5492077 0 0 0 -0.570759,0.810576 L 50.385677,73.396871 A 77.412424,77.412424 0 0 0 27.96773,80.970244 L 46.711704,19.654232 a 15.736689,15.736689 0 0 1 2.119968,-5.247162 6.9930179,6.9930179 0 0 1 2.791453,-2.062412 15.875782,15.875782 0 0 1 5.635661,-0.479632 h 13.39609 a 15.894967,15.894967 0 0 1 5.640461,0.479633 6.9738331,6.9738331 0 0 1 2.796246,2.072005 z M 64.621121,88.322983 a 26.624309,26.624309 0 0 0 16.307452,-4.426992 13.429664,13.429664 0 0 1 -0.992841,10.465544 18.887863,18.887863 0 0 1 -7.419883,7.103325 c -3.232719,2.05282 -6.014577,3.83705 -6.014577,8.57101 a 9.9715258,9.9715258 0 0 0 1.002427,4.38383 11.942809,11.942809 0 0 1 -7.362331,-11.03152 v -0.29256 c 0,-3.275879 0,-7.309565 -4.614048,-7.309565 a 4.9306053,4.9306053 0 0 0 -1.875358,0.369281 4.8970312,4.8970312 0 0 0 -2.647561,2.642765 4.9401979,4.9401979 0 0 0 -0.378906,1.875359 18.077287,18.077287 0 0 1 -4.738754,-12.681442 20.173274,20.173274 0 0 1 0.839354,-5.98579 c 1.918524,3.630803 9.208913,6.331126 17.895026,6.331126 z"
     style="fill:#ff5d01;fill-rule:evenodd;stroke-width:4.79631"
     id="path1" />
</svg>
