<svg
   viewBox="0 0 128 128"
   id="svg1">
   <defs
      id="defs1" />
   <g
      fill="#0089d6"
      id="g1"
      transform="matrix(9.0144944,0,0,11.636893,-8.113045,-23.273785)">
      <path
         d="M 7.47,12.412 10.818,11.82 10.849,11.813 9.127,9.764 A 291.474,291.474 0 0 1 7.404,7.706 c 0,-0.01 1.779,-4.909 1.789,-4.926 a 788.95,788.95 0 0 1 2.934,5.066 l 2.95,5.115 L 15.1,13 4.152,12.999 7.469,12.412 Z M 0.9,11.788 c 0,-0.003 0.811,-1.412 1.803,-3.131 L 4.507,5.53 6.609,3.766 C 7.765,2.797 8.714,2 8.717,2 A 0.37,0.37 0 0 1 8.684,2.085 L 6.4,6.981 4.16,11.789 2.53,11.791 c -0.897,10e-4 -1.63,0 -1.63,-0.003 z"
         id="path1" />
   </g>
</svg>