<?xml version="1.0" encoding="UTF-8" standalone="no"?>
<svg
   viewBox="0 0 128 128"
   version="1.1"
   id="svg3"
   sodipodi:docname="bigquery.svg"
   inkscape:version="1.3 (1:1.3+202307231459+0e150ed6c4)"
   xmlns:inkscape="http://www.inkscape.org/namespaces/inkscape"
   xmlns:sodipodi="http://sodipodi.sourceforge.net/DTD/sodipodi-0.dtd"
   xmlns="http://www.w3.org/2000/svg"
   xmlns:svg="http://www.w3.org/2000/svg">
  <defs
     id="defs3" />
  <sodipodi:namedview
     id="namedview3"
     pagecolor="#ffffff"
     bordercolor="#111111"
     borderopacity="1"
     inkscape:showpageshadow="0"
     inkscape:pageopacity="0"
     inkscape:pagecheckerboard="1"
     inkscape:deskcolor="#d1d1d1"
     inkscape:zoom="5.9296875"
     inkscape:cx="64"
     inkscape:cy="63.915679"
     inkscape:window-width="1850"
     inkscape:window-height="1016"
     inkscape:window-x="838"
     inkscape:window-y="313"
     inkscape:window-maximized="1"
     inkscape:current-layer="svg3" />
  <g
     id="g3"
     transform="matrix(2,0,0,2,0,-10e-4)">
    <path
       d="M 14.48,58.196 0.558,34.082 c -0.744,-1.288 -0.744,-2.876 0,-4.164 L 14.48,5.805 c 0.743,-1.287 2.115,-2.08 3.6,-2.082 h 27.857 c 1.48,0.007 2.845,0.8 3.585,2.082 l 13.92,24.113 c 0.744,1.288 0.744,2.876 0,4.164 L 49.52,58.196 c -0.743,1.287 -2.115,2.08 -3.6,2.082 H 18.07 C 16.587,60.273 15.22,59.48 14.477,58.196 Z"
       fill="#4386fa"
       id="path1" />
    <path
       d="m 40.697,24.235 c 0,0 3.87,9.283 -1.406,14.545 -5.276,5.262 -14.883,1.894 -14.883,1.894 L 43.95,60.27 h 1.984 c 1.486,-0.002 2.858,-0.796 3.6,-2.082 L 58.75,42.23 Z"
       opacity="0.1"
       id="path2" />
    <path
       d="M 45.267,43.23 41,38.953 a 0.67,0.67 0 0 0 -0.158,-0.12 11.63,11.63 0 1 0 -2.032,2.037 0.67,0.67 0 0 0 0.113,0.15 l 4.277,4.277 a 0.67,0.67 0 0 0 0.947,0 l 1.12,-1.12 a 0.67,0.67 0 0 0 0,-0.947 z M 31.64,40.464 a 8.75,8.75 0 1 1 8.749,-8.749 8.75,8.75 0 0 1 -8.749,8.749 z m -5.593,-9.216 v 3.616 c 0.557,0.983 1.363,1.803 2.338,2.375 v -6.013 z m 4.375,-2.998 v 9.772 a 6.45,6.45 0 0 0 2.338,0 V 28.25 Z m 6.764,6.606 V 32.714 H 34.85 v 4.5 a 6.43,6.43 0 0 0 2.338,-2.368 z"
       fill="#ffffff"
       id="path3" />
  </g>
</svg>
