<?xml version="1.0" encoding="UTF-8" standalone="no"?>
<svg
   viewBox="0 0 128 128"
   version="1.1"
   id="svg12"
   sodipodi:docname="bigtable.svg"
   inkscape:version="1.3 (1:1.3+202307231459+0e150ed6c4)"
   xmlns:inkscape="http://www.inkscape.org/namespaces/inkscape"
   xmlns:sodipodi="http://sodipodi.sourceforge.net/DTD/sodipodi-0.dtd"
   xmlns="http://www.w3.org/2000/svg"
   xmlns:svg="http://www.w3.org/2000/svg">
  <defs
     id="defs1" />
  <sodipodi:namedview
     id="namedview1"
     pagecolor="#ffffff"
     bordercolor="#111111"
     borderopacity="1"
     inkscape:showpageshadow="0"
     inkscape:pageopacity="0"
     inkscape:pagecheckerboard="1"
     inkscape:deskcolor="#d1d1d1"
     inkscape:zoom="4.1929222"
     inkscape:cx="63.55949"
     inkscape:cy="64.632727"
     inkscape:window-width="1850"
     inkscape:window-height="1016"
     inkscape:window-x="838"
     inkscape:window-y="313"
     inkscape:window-maximized="1"
     inkscape:current-layer="svg12" />
  <path
     style="display:inline;fill:#3c7ae2;stroke-width:0.0914886"
     d="m 35.852318,121.39912 c -0.363402,-0.0607 -0.73393,-0.17105 -0.823396,-0.2453 -0.08947,-0.0742 -0.162667,-0.10329 -0.162667,-0.0645 0,0.22172 -3.164228,-1.25225 -3.273251,-1.52475 -0.02237,-0.0559 -0.115822,-0.10164 -0.207684,-0.10164 -0.163848,0 -2.18666,-1.93171 -2.71512,-2.59284 -0.335893,-0.42022 -1.610957,-2.61963 -1.610957,-2.77881 0,-0.0647 -0.04952,-0.11766 -0.110052,-0.11766 -0.06053,0 -0.167673,-0.15096 -0.238102,-0.33546 -0.160891,-0.42149 -0.537117,-1.05422 -0.658978,-1.10827 -0.05074,-0.0225 -0.06122,-0.0911 -0.0233,-0.15248 0.03792,-0.0614 0.01082,-0.11157 -0.06023,-0.11157 -0.07105,0 -0.129183,-0.044 -0.129183,-0.0979 0,-0.0538 -0.503312,-0.97329 -1.118472,-2.04324 -0.615159,-1.06995 -1.25135,-2.19083 -1.413758,-2.49083 -0.16241,-0.30001 -0.391478,-0.68426 -0.509042,-0.85389 -0.117562,-0.16964 -0.295302,-0.47312 -0.394977,-0.67439 -0.09968,-0.20128 -0.629837,-1.15159 -1.178135,-2.11181 -0.5483,-0.96023 -0.996907,-1.79735 -0.996907,-1.86027 0,-0.0629 -0.04952,-0.1144 -0.110052,-0.1144 -0.06053,0 -0.167673,-0.15096 -0.238101,-0.33545 -0.148754,-0.3897 -0.499829,-0.9876 -0.719211,-1.22485 -0.08386,-0.0907 -0.152481,-0.20722 -0.152481,-0.25894 0,-0.0517 -0.494038,-0.950194 -1.097862,-1.996602 -0.603823,-1.046419 -1.09786,-1.960812 -1.09786,-2.031991 0,-0.07118 -0.04117,-0.129605 -0.09149,-0.12984 -0.05032,-2.68e-4 -0.256167,-0.31587 -0.457441,-0.70141 -0.201274,-0.385543 -0.395787,-0.728433 -0.43225,-0.761979 -0.03646,-0.03355 -0.382811,-0.637367 -0.769663,-1.341829 -0.386852,-0.704461 -0.752524,-1.363178 -0.812607,-1.463815 -0.52799,-0.884382 -0.820702,-1.420207 -0.825529,-1.511168 -0.0032,-0.05959 -0.05613,-0.141931 -0.117707,-0.182977 -0.06157,-0.04105 -0.703196,-1.117599 -1.425822,-2.392337 -0.722627,-1.274739 -1.439709,-2.53728 -1.593517,-2.805646 -0.153808,-0.268365 -0.280691,-0.536693 -0.281962,-0.596283 -0.0013,-0.05959 -0.049863,-0.14193 -0.1079827,-0.182978 C 9.772354,84.013279 9.1321785,82.93121 7.9038598,80.732791 7.4165437,79.860602 6.8701716,78.899974 6.6897017,78.598061 5.9438423,77.350307 4.1046289,74.110216 3.5044951,72.986772 3.3432152,72.684859 3.1563671,72.397513 3.089276,72.348222 c -0.081324,-0.05975 -0.081324,-0.09087 0,-0.09336 0.076408,-0.0023 0.074228,-0.03722 -0.00583,-0.09336 C 2.6260085,71.840771 0.59731991,67.83223 0.2908656,66.643576 0.00906132,65.550526 -0.09077361,63.145047 0.09339217,61.885532 0.36033238,60.05991 0.81530348,59.073395 3.6092223,54.262143 c 0.2337623,-0.402548 0.5628093,-0.978927 0.7312129,-1.280838 0.389651,-0.698553 1.0854279,-1.880249 1.4528949,-2.467572 0.1565134,-0.250154 0.2845704,-0.4887 0.2845704,-0.530101 0,-0.0414 0.1014099,-0.220978 0.2253536,-0.399064 0.1239455,-0.178084 0.3918021,-0.625704 0.5952382,-0.994707 0.8228588,-1.492549 1.0621901,-1.892608 1.1554475,-1.931422 0.053733,-0.02236 0.097697,-0.08687 0.097697,-0.143342 0,-0.111295 1.3132089,-2.475314 1.7612456,-3.170572 0.1513236,-0.234822 0.4848446,-0.811197 0.7411556,-1.280838 0.256313,-0.46964 0.695263,-1.238144 0.975449,-1.707783 0.280186,-0.469639 0.91138,-1.567503 1.402656,-2.439692 0.491273,-0.872189 1.013431,-1.777924 1.160348,-2.012745 0.146918,-0.234819 0.530365,-0.893535 0.852105,-1.463816 0.321741,-0.570276 0.73243,-1.283886 0.912643,-1.585798 0.180214,-0.30191 0.564456,-0.960628 0.853876,-1.463815 1.222561,-2.125553 1.524326,-2.626638 1.624375,-2.697298 0.05812,-0.04105 0.106577,-0.123387 0.107685,-0.182977 0.0012,-0.05959 0.208459,-0.465151 0.460783,-0.901246 0.252325,-0.436095 0.596769,-1.039917 0.76543,-1.341829 0.341525,-0.61135 0.708763,-1.249635 2.105513,-3.659537 1.449805,-2.501437 1.772042,-3.062197 2.102937,-3.659537 0.167242,-0.301913 0.452635,-0.79595 0.634205,-1.097861 0.521942,-0.867881 1.154041,-1.950314 1.602769,-2.744654 0.227402,-0.402548 0.496704,-0.878147 0.598449,-1.05689 0.101747,-0.178741 0.315725,-0.562992 0.47551,-0.853891 1.654651,-3.012415 3.747384,-4.9131369 6.672521,-6.0603063 1.696094,-0.6651675 0.437737,-0.6405342 30.486223,-0.5968081 15.229771,0.022162 27.910064,0.083468 28.178436,0.1362362 0.900054,0.176975 2.877631,1.0433671 3.88308,1.7012096 1.880718,1.2305054 2.920768,2.4989086 4.939499,6.0239816 0.49147,0.858199 1.41497,2.466098 2.05223,3.573107 0.63726,1.107009 1.31219,2.28721 1.49984,2.622668 0.18766,0.335458 0.53326,0.93928 0.76799,1.341829 0.23474,0.40255 0.85385,1.472965 1.3758,2.378699 0.52195,0.905736 1.1397,1.976151 1.37279,2.378699 0.23308,0.40255 0.56178,0.978926 0.73044,1.280838 0.16866,0.301911 0.51871,0.915312 0.77787,1.363113 0.25916,0.447801 0.4712,0.868647 0.4712,0.935216 0,0.06657 0.0421,0.139328 0.0935,0.161693 0.0976,0.04245 0.57391,0.833007 1.86196,3.090275 0.42113,0.738007 1.17855,2.055441 1.68316,2.92763 0.5046,0.872189 1.03139,1.788628 1.17062,2.036527 0.55757,0.992698 1.7346,3.040804 2.51005,4.367663 0.82161,1.405815 2.14597,3.718212 3.63287,6.343196 0.43704,0.771552 0.91638,1.594948 1.0652,1.829769 0.49422,0.779823 2.25488,3.885112 2.25488,3.976939 0,0.04968 0.0773,0.176995 0.17189,0.282915 0.0945,0.10592 0.30493,0.4396 0.46755,0.741512 0.16262,0.301911 0.60807,1.101477 0.98988,1.776814 0.38181,0.675337 0.89839,1.800643 1.14797,2.500683 L 128,61.581217 l -0.003,2.317705 c -0.003,2.448624 -0.057,2.781598 -0.70393,4.330453 -0.32422,0.776188 -1.17794,2.471969 -1.28964,2.561676 -0.0418,0.03355 -0.2077,0.308011 -0.36873,0.609923 -0.31236,0.585673 -0.83542,1.485452 -1.6664,2.866637 -0.28257,0.46964 -0.66815,1.155803 -0.85687,1.524805 -0.18872,0.369004 -0.37336,0.698363 -0.41033,0.731908 -0.0754,0.06843 -0.24624,0.363391 -0.77722,1.341832 -0.20025,0.369002 -0.46549,0.81662 -0.58944,0.994706 -0.12395,0.178086 -0.22535,0.355522 -0.22535,0.3943 0,0.03878 -0.21956,0.42925 -0.48793,0.867706 -0.26837,0.438459 -0.48794,0.820029 -0.48794,0.847937 0,0.02791 -0.15716,0.315127 -0.34926,0.638269 -0.19209,0.323143 -0.58837,0.99923 -0.88062,1.502416 -0.29225,0.503187 -0.58795,0.955213 -0.65712,1.004505 -0.0806,0.05741 -0.0819,0.09096 -0.004,0.09336 0.0813,0.0025 0.0813,0.03361 0,0.09336 -0.0671,0.04929 -0.25365,0.33664 -0.41458,0.638551 -0.16092,0.301912 -0.36677,0.635591 -0.45744,0.741511 -0.0907,0.105921 -0.16489,0.243154 -0.16494,0.304963 -5e-5,0.06181 -0.27452,0.573678 -0.60993,1.137485 -0.3354,0.563809 -0.60983,1.067649 -0.60983,1.119644 0,0.052 -0.0686,0.167075 -0.15248,0.255732 -0.0839,0.08866 -0.28415,0.408212 -0.44507,0.710124 -0.16093,0.301912 -0.35843,0.63127 -0.43891,0.731907 -0.0805,0.100638 -0.17931,0.276271 -0.21965,0.390296 -0.0403,0.114025 -0.39615,0.745296 -0.79071,1.402822 -0.39455,0.657528 -0.75298,1.277844 -0.79651,1.378482 -0.0435,0.100637 -0.21716,0.402549 -0.38585,0.670915 -0.16869,0.268365 -0.34309,0.563545 -0.38755,0.655956 -0.0445,0.09241 -0.35526,0.641341 -0.69066,1.219846 -0.3354,0.578504 -0.81999,1.419092 -1.07685,1.86797 -0.25688,0.44888 -0.58688,1.025259 -0.73334,1.280841 -0.14646,0.255582 -0.40485,0.711707 -0.57418,1.013617 -0.16934,0.301923 -0.36603,0.589263 -0.4371,0.638563 -0.0797,0.0553 -0.0825,0.0911 -0.007,0.0934 0.0774,0.002 0.0758,0.0365 -0.005,0.0934 -0.0696,0.0493 -0.28919,0.40512 -0.48794,0.79073 -0.19874,0.38562 -0.40253,0.70126 -0.45284,0.70142 -0.0503,0 -0.0915,0.0527 -0.0915,0.11669 0,0.064 -0.27447,0.59338 -0.60993,1.17636 -0.33546,0.58297 -0.60992,1.10697 -0.60992,1.16444 0,0.0575 -0.0549,0.10448 -0.12198,0.10448 -0.0671,0 -0.11078,0.0412 -0.0971,0.0915 0.0229,0.0842 -0.40989,0.86024 -1.09484,1.96309 -0.15238,0.24536 -0.31293,0.52843 -0.35679,0.62907 -0.0772,0.17716 -0.72144,1.28273 -1.57453,2.70205 -0.22786,0.37912 -0.41431,0.71855 -0.41431,0.75429 0,0.0358 -0.15716,0.32939 -0.34925,0.65253 -0.19209,0.32315 -0.58918,0.99923 -0.88242,1.50242 -0.29324,0.50318 -0.57522,0.93317 -0.62662,0.95554 -0.0514,0.0224 -0.0935,0.10231 -0.0935,0.17766 0,0.17403 -1.349382,2.4515 -1.484776,2.506 -0.05556,0.0224 -0.101022,0.10883 -0.101022,0.19214 0,0.20247 -2.549251,2.64625 -2.99964,2.87552 -0.195218,0.0994 -0.547064,0.30111 -0.781887,0.4483 -0.574173,0.35989 -2.711085,1.15434 -3.415565,1.26981 -0.565545,0.0927 -55.788554,0.0696 -56.346682,-0.0236 z M 70.614149,97.726419 c -0.532347,-2.482247 -2.168693,-4.671474 -4.519845,-6.046987 -0.637369,-0.372886 -1.350979,-0.798909 -1.5858,-0.946722 -0.23482,-0.147812 -0.673965,-0.404835 -0.975876,-0.57116 -0.301912,-0.166326 -1.619345,-0.920831 -2.92763,-1.676679 -1.308286,-0.755847 -2.598272,-1.497205 -2.866638,-1.647462 -0.268365,-0.150258 -1.174101,-0.674073 -2.012744,-1.164036 -0.838644,-0.489961 -1.771827,-1.027319 -2.073738,-1.194128 -0.301912,-0.16681 -0.741056,-0.424283 -0.975876,-0.572162 -0.234822,-0.147879 -0.948431,-0.561468 -1.585799,-0.919086 -1.793594,-1.006357 -2.195319,-1.313571 -2.449423,-1.873154 -0.21833,-0.480799 -0.229004,-1.007789 -0.231559,-11.431819 -0.0015,-6.010281 -0.03538,-10.960488 -0.07536,-11.00046 -0.07246,-0.07246 -0.690521,0.237717 -1.269153,0.636939 -0.167731,0.115722 -0.469642,0.29474 -0.670916,0.397817 -1.405453,0.719756 -1.802718,1.000455 -1.964745,1.38824 -0.140949,0.337336 -0.169781,2.225486 -0.168793,11.053898 l 0.0012,10.647071 0.286481,0.609923 c 0.384929,0.819523 0.291378,0.747592 2.865198,2.203113 0.387046,0.21888 1.364557,0.785758 4.469973,2.592232 0.402549,0.23417 1.088712,0.628791 1.524806,0.876937 0.436097,0.248145 1.149707,0.658675 1.585799,0.912289 1.391064,0.80898 1.753904,1.016535 2.439693,1.395568 0.369003,0.203948 1.796222,1.026497 3.171598,1.827886 2.082003,1.213119 5.291386,3.062754 6.282204,3.620565 1.727429,0.972508 3.562882,2.046712 3.659538,2.14175 0.183974,0.180901 0.222404,-0.537659 0.06741,-1.260373 z m 3.043197,-8.057076 c 0.838645,-0.474697 1.716933,-0.983063 1.951753,-1.129702 0.41393,-0.258487 4.892478,-2.854239 5.712702,-3.311061 0.604996,-0.336954 0.96276,-0.543541 1.972326,-1.138905 0.503187,-0.29674 1.271691,-0.738722 1.707783,-0.98218 0.875047,-0.48851 2.462816,-1.405296 4.696406,-2.711731 0.805099,-0.470903 1.820623,-1.061357 2.256711,-1.312118 0.436099,-0.250763 1.745124,-1.011532 2.908957,-1.690603 1.163834,-0.67907 2.15191,-1.235893 2.195723,-1.237384 0.04381,-0.0015 0.21681,-0.108075 0.384425,-0.236849 l 0.304766,-0.234136 -0.670719,-0.30662 c -0.930768,-0.425502 -2.237397,-0.602722 -3.9033,-0.529405 -2.125096,0.09353 -2.608287,0.296825 -7.319076,3.079448 -0.369004,0.217968 -0.890488,0.516227 -1.158853,0.6628 -0.268366,0.146574 -0.70751,0.393751 -0.975878,0.549285 -0.268366,0.155533 -1.201547,0.693315 -2.073736,1.195074 -0.872191,0.501757 -2.299411,1.322989 -3.171599,1.824962 -0.872189,0.501972 -2.062519,1.195826 -2.645174,1.541897 -0.582657,0.346072 -1.091508,0.629221 -1.130783,0.629221 -0.03927,0 -0.295144,0.141241 -0.568606,0.313869 -2.437349,1.538632 -3.021277,1.605382 -4.804281,0.549197 -0.335457,-0.198713 -0.884386,-0.509026 -1.219843,-0.689583 -0.335459,-0.180558 -0.839387,-0.485582 -1.119841,-0.67783 -0.280454,-0.19225 -0.550114,-0.349544 -0.599244,-0.349544 -0.04913,0 -0.34115,-0.156462 -0.648936,-0.347694 -0.307784,-0.191231 -1.355558,-0.802897 -2.328387,-1.359256 -0.972826,-0.556359 -1.960901,-1.132772 -2.195721,-1.280917 -0.234819,-0.148145 -1.195449,-0.697944 -2.134731,-1.221777 -0.939281,-0.523833 -1.899909,-1.076912 -2.134729,-1.229068 -0.234821,-0.152156 -0.673965,-0.409652 -0.975876,-0.572214 -0.301911,-0.162562 -0.87829,-0.487173 -1.280838,-0.721355 -2.650706,-1.542049 -3.115042,-1.806638 -3.17054,-1.806638 -0.03413,0 -0.06205,0.983851 -0.06205,2.186338 v 2.186338 l 0.346007,0.344842 c 0.190302,0.189662 1.054868,0.747018 1.921256,1.238569 0.866388,0.491549 2.865237,1.639575 4.441889,2.551165 1.576648,0.911591 3.22344,1.859849 3.659537,2.107238 0.436094,0.24739 1.479061,0.851381 2.317705,1.342201 0.838644,0.490821 1.771825,1.027987 2.073737,1.193703 0.301913,0.165717 0.741057,0.422856 0.975878,0.571423 0.875679,0.554027 2.95605,1.687126 3.391521,1.847234 0.766454,0.281798 1.400293,0.108941 3.073659,-0.838234 z M 38.26419,86.346879 c 0.7648,-0.70641 1.448892,-1.666754 1.931745,-2.711826 0.833224,-1.803406 0.80652,-1.403379 0.883194,-13.230082 l 0.06933,-10.693771 0.365953,-0.515181 c 0.347846,-0.489683 1.161444,-1.016904 4.086484,-2.648094 0.301913,-0.168365 0.878288,-0.499089 1.280838,-0.734942 0.402549,-0.235851 1.418071,-0.823686 2.256713,-1.306298 0.838644,-0.482613 2.265864,-1.306238 3.171599,-1.830278 0.905736,-0.524041 1.756578,-1.012112 1.890762,-1.084601 0.134182,-0.07249 0.527736,-0.31099 0.874565,-0.530003 0.346826,-0.219012 0.658133,-0.398204 0.69179,-0.398204 0.03366,0 0.545838,-0.282602 1.13818,-0.628005 0.592344,-0.345401 1.728717,-1.000491 2.525274,-1.455752 l 1.448288,-0.827751 -0.680024,-0.435007 c -0.374015,-0.239255 -0.729319,-0.435007 -0.789568,-0.435007 -0.06025,0 -0.329581,-0.159395 -0.598518,-0.354213 -0.55369,-0.40109 -1.741125,-0.987665 -1.99909,-0.987521 -0.271933,1.68e-4 -1.458624,0.627773 -3.952729,2.090522 -1.274738,0.747612 -2.67451,1.562868 -3.110606,1.811679 -0.436094,0.24881 -1.149704,0.659548 -1.585798,0.912751 -0.436095,0.253204 -1.037785,0.599068 -1.337087,0.768588 -0.299303,0.16952 -1.033649,0.601896 -1.631882,0.960836 -0.598232,0.358939 -1.117044,0.652616 -1.152918,0.652616 -0.03587,0 -0.317046,0.156461 -0.624833,0.347694 -0.307783,0.191231 -1.355559,0.803272 -2.328385,1.36009 -3.306112,1.892325 -3.546629,2.068382 -3.916209,2.866638 -0.215893,0.466305 -0.226027,1.140057 -0.228589,15.197242 -0.0015,8.090118 0.03442,14.746402 0.07976,14.791744 0.0837,0.0837 0.290051,-0.07481 1.241759,-0.953864 z M 72.4375,81.970413 c 0.369004,-0.202086 1.426295,-0.81024 2.349538,-1.351456 0.923242,-0.541214 2.213228,-1.290215 2.866636,-1.664446 2.149519,-1.231106 7.573039,-4.36668 9.787929,-5.65883 0.369002,-0.215275 1.127176,-0.657142 1.684826,-0.981927 1.058041,-0.616222 1.533003,-1.07073 1.810219,-1.732258 0.134918,-0.32196 0.164492,-3.035951 0.164492,-15.095589 0,-12.941612 -0.02177,-14.703058 -0.181686,-14.703058 -0.262342,0 -1.502371,1.152452 -2.092201,1.944439 -0.70593,0.947878 -1.343639,2.253596 -1.586805,3.249002 -0.182722,0.747982 -0.214983,2.081968 -0.281511,11.640428 -0.04133,5.937599 -0.08686,10.810584 -0.101199,10.828856 -0.387386,0.493851 -1.150616,1.193325 -1.482657,1.358802 -0.238789,0.119004 -0.9282,0.506641 -1.532023,0.861417 -0.603824,0.354775 -1.317433,0.766752 -1.585801,0.915505 -0.268366,0.148753 -1.174101,0.670667 -2.012745,1.159809 -0.838643,0.489145 -2.210969,1.284908 -3.049614,1.768365 -0.838645,0.483457 -2.248252,1.298008 -3.132462,1.810117 -0.884209,0.512108 -1.817394,1.048564 -2.073738,1.192125 -0.256344,0.143562 -0.603313,0.354609 -0.771042,0.468995 -0.16773,0.114386 -0.606874,0.361117 -0.975877,0.548296 -0.369004,0.18718 -0.757578,0.416523 -0.863498,0.509653 -0.10592,0.09313 -0.231109,0.169327 -0.278197,0.169327 -0.154142,0 -1.785935,1.011794 -1.785935,1.107372 0,0.05125 0.480314,0.367419 1.067365,0.702601 0.587051,0.335184 1.276565,0.7375 1.532256,0.894037 1.069502,0.654762 1.420013,0.662876 2.52373,0.05842 z m -7.346524,-3.922986 c 0.451193,-0.235758 1.945659,-1.087725 3.321034,-1.893256 1.375375,-0.805532 2.802595,-1.629665 3.171599,-1.831406 0.693653,-0.379233 1.088649,-0.605565 2.43969,-1.397943 0.436097,-0.255765 1.079799,-0.624347 1.430451,-0.81907 1.041258,-0.578228 1.131225,-0.761707 1.131225,-2.307029 0,-1.006168 -0.03819,-1.32538 -0.15858,-1.32538 -0.08722,0 -0.210727,0.05032 -0.274464,0.111815 -0.06374,0.0615 -0.362905,0.245261 -0.664817,0.408367 -0.30191,0.163105 -1.235093,0.697244 -2.073737,1.186976 -0.838644,0.489732 -2.183524,1.270837 -2.988623,1.735787 -0.805097,0.464952 -2.451888,1.416618 -3.659536,2.114814 -1.207647,0.698195 -2.367863,1.30271 -2.578257,1.343368 -0.295581,0.05712 -0.559,-0.02178 -1.158854,-0.347095 -0.778142,-0.422008 -4.900022,-2.796203 -5.472722,-3.152277 -0.436184,-0.271194 -2.913373,-1.694199 -3.390654,-1.947736 -0.221118,-0.11746 -0.468137,-0.265581 -0.548931,-0.329159 -0.186216,-0.146531 -2.024899,-1.12486 -2.114077,-1.12486 -0.03661,0 -0.04811,0.630169 -0.02557,1.400373 0.0383,1.308253 0.06105,1.419518 0.345955,1.691413 0.250757,0.239311 2.667498,1.680268 4.940375,2.94565 0.576645,0.321036 3.468328,1.98797 4.513429,2.601801 1.51503,0.889844 2.448548,1.357181 2.717201,1.360287 0.152631,0.0018 0.646668,-0.189681 1.097861,-0.42544 z m 0.555289,-6.422301 c 0.816699,-0.480537 1.841713,-1.07598 2.277807,-1.323205 0.436095,-0.247224 1.18761,-0.676556 1.670037,-0.954072 0.482424,-0.277517 1.058801,-0.608209 1.280837,-0.734873 0.222037,-0.126665 0.89774,-0.520405 1.501561,-0.87498 0.603826,-0.354575 1.317435,-0.766253 1.585801,-0.914838 0.268366,-0.148587 0.95453,-0.540792 1.524806,-0.871563 l 1.03687,-0.601404 0.03414,-1.549029 c 0.01878,-0.851968 0.0015,-1.549031 -0.03849,-1.549031 -0.03995,0 -0.549346,0.283411 -1.132002,0.629799 -1.296926,0.771025 -2.274095,1.339654 -3.316091,1.929686 -0.823784,0.466469 -0.933684,0.530066 -2.744652,1.588257 -0.603821,0.35283 -1.317432,0.763635 -1.585798,0.912905 -0.268365,0.149267 -1.119209,0.635845 -1.890762,1.081283 -1.749733,1.010167 -1.965219,1.027683 -3.226131,0.262261 -0.49735,-0.301912 -0.940809,-0.54893 -0.985465,-0.54893 -0.04466,0 -0.2269,-0.102759 -0.404986,-0.228352 -0.178086,-0.125592 -0.625704,-0.39273 -0.994707,-0.593642 -0.369004,-0.200911 -1.658989,-0.939995 -2.866637,-1.642407 -1.207648,-0.702412 -2.379761,-1.38218 -2.604698,-1.510592 -0.931744,-0.531914 -2.067199,-1.193687 -2.618248,-1.525976 -0.323141,-0.19486 -0.61133,-0.354292 -0.640418,-0.354292 -0.02909,0 -0.05289,0.679443 -0.05289,1.509872 0,1.059579 0.04548,1.547332 0.15248,1.635481 0.159967,0.131777 4.12988,2.423563 6.495679,3.749881 0.335457,0.188065 1.378425,0.792941 2.317707,1.344171 2.879318,1.689765 3.409503,1.985678 3.577452,1.996687 0.08904,0.0058 0.830093,-0.382558 1.646791,-0.863097 z m 16.859691,-3.777188 c 0.338059,-0.187484 0.749756,-0.484681 0.914884,-0.660435 l 0.300232,-0.31955 0.03504,-10.694351 c 0.0264,-8.057334 -0.0012,-10.82621 -0.111915,-11.229119 -0.256478,-0.933287 -0.694691,-1.272727 -4.192588,-3.247568 -1.006373,-0.568176 -2.021894,-1.147019 -2.256716,-1.286316 -0.234819,-0.139298 -0.78375,-0.459609 -1.219844,-0.711803 -0.436097,-0.252197 -1.726083,-1.000513 -2.866638,-1.662927 -1.140555,-0.662416 -2.238417,-1.284636 -2.439691,-1.382714 -0.201275,-0.09808 -0.504748,-0.274515 -0.674385,-0.392077 -0.169639,-0.117563 -0.55389,-0.347856 -0.853893,-0.511764 -0.479737,-0.262105 -2.945126,-1.681036 -3.961027,-2.279732 -0.201275,-0.118618 -1.354029,-0.779518 -2.561677,-1.46867 -1.207647,-0.689152 -2.470187,-1.418037 -2.805645,-1.619747 -0.335459,-0.20171 -0.829495,-0.487362 -1.097859,-0.634785 -0.268367,-0.147423 -0.693789,-0.392261 -0.945382,-0.544086 l -0.457441,-0.276044 6.7e-4,0.286514 c 0.0029,1.160071 0.69678,3.101636 1.554702,4.350009 0.830514,1.208492 2.127288,2.243906 4.421835,3.530624 0.441039,0.247324 2.672901,1.542173 5.123352,2.972392 0.77155,0.450321 2.061537,1.19883 2.866635,1.663352 0.805099,0.464521 2.136255,1.237587 2.958128,1.717921 0.82187,0.480337 2.16675,1.261861 2.988621,1.736721 1.716634,0.991835 1.864142,1.108579 2.178206,1.723931 0.221591,0.434169 0.230988,0.8986 0.230988,11.415722 0,6.029725 0.03166,10.994799 0.07036,11.033497 0.0387,0.0387 0.546458,-0.208298 1.128358,-0.548879 0.581899,-0.340578 1.334591,-0.772631 1.67265,-0.960116 z M 65.11095,65.787046 c 0.566164,-0.336811 1.169987,-0.684594 1.341829,-0.772852 0.171842,-0.08826 1.498481,-0.85048 2.948088,-1.693822 1.449608,-0.843342 2.867817,-1.661995 3.151577,-1.819229 0.964772,-0.534589 2.811049,-1.606438 3.51388,-2.039966 l 0.518215,-0.319651 1.68e-4,-0.866348 c 3.35e-4,-1.063741 -0.262149,-1.517991 -1.158636,-2.005641 -0.335423,-0.182474 -0.966692,-0.538655 -1.402789,-0.791514 -0.436093,-0.252861 -1.149702,-0.663451 -1.585799,-0.912426 -1.415751,-0.80828 -5.17604,-2.989142 -5.489304,-3.183644 -1.11986,-0.695302 -2.406137,-1.357967 -2.741572,-1.412401 -0.274279,-0.04451 -0.577465,0.02702 -0.991946,0.234027 -0.553859,0.276616 -3.134585,1.746043 -3.829527,2.180472 -0.429867,0.268727 -3.156844,1.827369 -3.60509,2.060545 -0.204874,0.106576 -0.534233,0.308018 -0.731907,0.447652 -0.197675,0.139634 -0.688765,0.427016 -1.091315,0.638627 -1.509878,0.793709 -1.838448,0.99962 -2.165226,1.356934 -0.30656,0.335207 -0.335457,0.449635 -0.335457,1.328372 v 0.961565 l 1.860264,1.069255 c 1.023146,0.58809 2.21707,1.27065 2.653165,1.5168 0.436095,0.246151 1.588849,0.915856 2.561676,1.488235 0.972825,0.572382 1.988347,1.161392 2.256713,1.308914 0.608592,0.334544 1.223167,0.687699 2.317708,1.331829 0.46964,0.276381 0.881338,0.503442 0.914884,0.50458 0.03355,0.0012 0.524219,-0.273503 1.090384,-0.610313 z M 36.968084,52.862416 c 1.100614,-0.375112 1.736801,-0.726362 11.011512,-6.079645 2.095369,-1.209427 4.651978,-2.678564 5.184343,-2.979145 0.234821,-0.132582 0.948431,-0.548225 1.585801,-0.92365 0.993037,-0.584924 1.263578,-0.689087 1.890759,-0.727972 0.821044,-0.05091 0.79765,-0.06078 3.293583,1.390177 1.766603,1.026975 1.452899,0.845679 4.208468,2.432177 2.30214,1.325437 2.799149,1.61354 5.225017,3.028796 0.760376,0.443604 1.410618,0.806553 1.444984,0.806553 0.03436,0 0.208188,0.102756 0.386274,0.228349 0.178086,0.125592 0.625703,0.391005 0.994706,0.589805 0.369004,0.198799 1.47839,0.837098 2.465304,1.418443 0.986912,0.581343 1.824031,1.056985 1.860263,1.056985 0.03623,0 0.06567,-0.946904 0.06542,-2.104233 -3.35e-4,-1.834435 -0.02942,-2.151155 -0.226324,-2.470188 -0.149648,-0.242457 -0.756677,-0.670436 -1.798815,-1.26823 -1.775476,-1.01845 -4.498869,-2.587703 -5.232487,-3.01502 -0.268366,-0.156317 -0.7624,-0.430051 -1.09786,-0.608298 -0.335457,-0.178247 -0.748715,-0.421908 -0.918354,-0.54147 -0.169637,-0.119562 -0.553888,-0.350149 -0.853893,-0.512414 -0.474239,-0.256506 -1.659239,-0.938753 -4.570949,-2.631659 -0.402549,-0.234044 -1.088714,-0.629095 -1.524808,-0.877887 -0.436096,-0.248793 -1.241695,-0.710656 -1.790221,-1.026366 -0.724182,-0.416807 -1.175195,-0.592266 -1.646792,-0.640647 -0.589469,-0.06047 -0.737165,-0.0204 -1.598684,0.433793 -0.522067,0.275232 -1.498941,0.830597 -2.17083,1.234148 -0.671889,0.403548 -1.479837,0.87368 -1.795439,1.044736 -0.315602,0.171056 -0.930628,0.518183 -1.366721,0.77139 -0.436096,0.253207 -1.067365,0.615658 -1.402824,0.805448 -0.335457,0.18979 -0.814682,0.473583 -1.064941,0.63065 -0.250259,0.157066 -0.487389,0.285576 -0.526952,0.285576 -0.03956,0 -0.311288,0.164679 -0.603829,0.365953 -0.292541,0.201274 -0.56561,0.365954 -0.606816,0.365954 -0.04121,0 -1.074283,0.582141 -2.295729,1.293644 -1.221444,0.711505 -2.605058,1.516386 -3.074699,1.788628 -0.469638,0.272242 -1.10091,0.638227 -1.402822,0.813304 -0.30191,0.175075 -0.686162,0.39546 -0.853892,0.489741 -0.167729,0.09428 -0.771552,0.442959 -1.34183,0.774835 -0.570277,0.331879 -1.292759,0.747554 -1.605515,0.923727 -3.011007,1.696064 -4.851073,2.774636 -4.854968,2.845782 -0.0069,0.12668 1.055116,0.576449 1.825069,0.7729 1.070372,0.273101 3.745207,0.16988 4.785491,-0.18467 z"
     id="path2" />
</svg>
