<?xml version="1.0" encoding="UTF-8" standalone="no"?>
<svg
   viewBox="0 0 128 128"
   version="1.1"
   id="svg4">
  <defs
     id="defs1">
    <path
       d="M252.925854,103.237077 L200.327344,11.759667 C196.302579,4.62225703 188.80054,0.148424726 180.607902,0 L75.3908814,0 C67.1970912,0.14438548 59.6931984,4.61932363 55.6714398,11.759667 L3.05292985,102.997083 C-1.01764328,110.080373 -1.01764328,118.793146 3.05292985,125.876436 L55.6514404,217.87383 C59.6319755,225.112707 67.1159052,229.735134 75.370882,230.053486 L180.587903,230.053486 C188.842442,229.770144 196.339809,225.166896 200.327344,217.933829 L252.925854,126.456419 C257.024715,119.259311 257.024715,110.434185 252.925854,103.237077 Z"
       id="path-1" />
  </defs>
  <g
     id="g4"
     transform="matrix(0.50607717,0,0,0.50607717,-0.7778777,5.7875914)">
    <mask
       id="mask-2"
       fill="#ffffff">
      <use
         xlink:href="#path-1"
         id="use1" />
    </mask>
    <g
       fill-rule="nonzero"
       id="g1" />
    <path
       d="M 252.92585,103.23708 200.32734,11.759667 C 196.30258,4.622257 188.80054,0.14842473 180.6079,0 H 75.390881 C 67.197091,0.14438548 59.693198,4.6193236 55.67144,11.759667 L 3.0529299,102.99708 c -4.0705732,7.08329 -4.0705732,15.79607 0,22.87936 L 55.65144,217.87383 c 3.980536,7.23888 11.464465,11.8613 19.719442,12.17966 H 180.5879 c 8.25454,-0.28335 15.75191,-4.88659 19.73944,-12.11966 l 52.59851,-91.47741 c 4.09887,-7.19711 4.09887,-16.02223 0,-23.21934 z"
       fill="#4285f4"
       fill-rule="nonzero"
       mask="url(#mask-2)"
       id="path1" />
    <path
       d="m 187.1676,84.731603 -7.25189,7.909345 1.63367,46.997852 -6.87336,9.96139 -3.98456,-3.98456 h 3.66579 v -16.29684 l -17.59182,-17.59181 -13.29668,6.64607 -44.100857,-44.200523 -21.237688,11.37591 -2.629808,22.034603 7.451121,40.32371 10.79815,10.579 -4.920928,6.9929 64.24736,65.75817 h 26.83961 c 8.2229,-0.28226 17.12857,-5.67112 21.10082,-12.87647 l 43.77881,-76.00342 z"
       fill="#000000"
       fill-rule="nonzero"
       opacity="0.07"
       mask="url(#mask-2)"
       id="path2" />
    <polygon
       fill="#ffffff"
       fill-rule="nonzero"
       mask="url(#mask-2)"
       points="83.569125,89.971295 99.367893,74.172527 88.82874,63.633374 67.730511,84.731603 67.730511,144.38042 88.82874,165.47865 99.367893,154.9395 83.569125,139.14073 "
       id="polygon2" />
    <circle
       fill="#ffffff"
       fill-rule="nonzero"
       mask="url(#mask-2)"
       cx="105.1455"
       cy="114.55602"
       r="7.4710441"
       id="circle2" />
    <circle
       fill="#ffffff"
       fill-rule="nonzero"
       mask="url(#mask-2)"
       cx="127.49886"
       cy="114.55602"
       r="7.4710441"
       id="circle3" />
    <circle
       fill="#ffffff"
       fill-rule="nonzero"
       mask="url(#mask-2)"
       cx="149.85223"
       cy="114.55602"
       r="7.4710441"
       id="circle4" />
    <polygon
       fill="#ffffff"
       fill-rule="nonzero"
       mask="url(#mask-2)"
       points="171.32899,139.14073 155.53022,154.9395 166.06938,165.47865 187.16761,144.38042 187.16761,84.731603 166.06938,63.633374 155.53022,74.172527 171.32899,89.971295 "
       id="polygon4" />
  </g>
</svg>
