<?xml version="1.0" encoding="UTF-8" standalone="no"?>
<svg
   viewBox="0 0 128 128"
   version="1.1"
   id="svg12">
  <g
     id="g425"
     transform="matrix(0.37757627,0,0,0.37757627,-0.72809237,-0.78594644)">
    <path
       style="display:inline;fill:#3c7be2"
       d="M 88.787095,322.2946 C 80.518017,318.65179 74.976906,310.30935 38.299864,246.28332 L 1.0003864,181.17074 0.49852565,172.28904 C 0.17129954,166.49794 0.66883543,161.8022 1.9283319,158.79452 5.3835073,150.54357 75.156917,30.289799 78.681251,26.511641 87.322287,17.248272 84.592966,17.51503 170.7298,17.51503 c 83.70228,0 81.75568,-0.154205 90.43422,7.163994 2.7161,2.290354 17.75638,27.071747 42.00001,69.202053 l 37.76865,65.633963 v 11.33333 11.33334 c -29.92515,54.86954 -60.75936,98.66215 -87.33334,139.03242 -1.07927,1.63958 -0.48377,1.97738 -82,2.45032 -64.44801,0.37392 -79.415961,0.12632 -82.812245,-1.36985 z M 135.59934,239.817 c 2.93333,-1.46102 15.04829,-8.28204 26.92214,-15.15782 27.42455,-15.88071 25.00709,-15.20686 27.14618,-7.56679 3.74176,13.36427 16.86434,23.03075 31.26501,23.03075 25.01247,0 40.65589,-27.13275 28.04759,-48.64719 -4.47291,-7.63244 -6.02559,-8.75237 -36.23878,-26.1387 l -25.92841,-14.92062 4.66136,-4.78413 c 12.52759,-12.85751 11.93927,-35.06144 -1.23548,-46.629032 -12.91,-11.335132 -32.37609,-11.227532 -44.46909,0.245806 -8.95213,8.493406 -9.4419,11.012986 -9.47457,48.741746 -0.0275,31.69391 -0.17528,33.74535 -2.36262,32.78683 -1.28333,-0.56238 -6.53333,-1.27777 -11.66667,-1.58977 -12.21266,-0.74229 -21.78354,3.80063 -28.257114,13.41253 -18.662466,27.70982 11.653914,62.1271 41.590454,47.21639 z M 112.7368,222.94658 c -11.97077,-7.29934 -6.21035,-26.74101 7.92875,-26.75989 5.05413,-0.007 10.70579,3.09787 12.5267,6.88126 2.68824,5.5855 2.93308,7.51141 1.57858,12.41698 -2.46574,8.9302 -13.49845,12.66634 -22.03403,7.46165 z m 102.86254,-1.30816 c -14.93899,-6.52699 -10.7537,-28.12338 5.4502,-28.12338 13.90191,0 19.52798,16.26249 8.89919,25.72366 -3.16071,2.81349 -10.56733,4.05214 -14.34939,2.39972 z m -62,-40.63834 c 0,-27.32928 0.11947,-28.68571 2.44647,-27.77541 4.15895,1.62693 46.80352,26.2448 46.84642,27.04351 0.0222,0.41422 -9.10956,6.04637 -20.29289,12.51588 -11.18333,6.46951 -22.28334,12.92954 -24.66667,14.35561 l -4.33333,2.59286 z m 4.53333,-48.01838 c -3.7164,-3.7164 -4.53333,-5.54248 -4.53333,-10.13333 0,-4.59085 0.81693,-6.41693 4.53333,-10.13333 3.7164,-3.71641 5.54249,-4.53334 10.13334,-4.53334 8.01914,0 14.66666,6.64753 14.66666,14.66667 0,8.01914 -6.64752,14.66667 -14.66666,14.66667 -4.59085,0 -6.41694,-0.81693 -10.13334,-4.53334 z"
       id="path425"
       sodipodi:nodetypes="sscsssssscccssssssssscssscssssscsssssssssssscssssssss" />
  </g>
</svg>
