<svg
   viewBox="0 0 128 128"
   id="svg2">
   <g
      id="g2"
      transform="matrix(0.29323026,0,0,0.29323026,3.654874e-7,10.923772)">
      <path
         d="M 73.934551,361.86035 V 238.21888 h 39.363309 c 40.43906,0 60.58525,20.13118 60.58525,60.34345 0,19.07954 -5.62333,34.50343 -17.01668,46.02126 -11.39335,11.51784 -25.96511,17.37691 -43.81307,17.37691 H 73.934551 Z M 98.237114,259.70216 v 80.57477 h 13.251496 c 11.54005,0 20.53737,-3.75582 27.13867,-11.1673 6.6013,-7.51163 9.8775,-17.52714 9.8775,-30.24684 0,-12.26899 -3.47179,-21.88388 -10.26868,-28.79459 -6.89469,-6.9107 -15.74532,-10.31597 -26.74749,-10.31597 H 98.237114 Z M 193.10023,361.86035 V 238.21888 h 40.43906 c 12.37133,0 21.95544,2.55396 28.70343,7.66187 6.748,5.10791 10.0242,12.16884 10.0242,21.23288 0,6.71039 -2.10264,12.61954 -6.25901,17.62729 -4.15637,5.00776 -9.38851,8.51319 -15.74532,10.46621 v 0.35055 c 7.92156,1.1017 14.32726,4.25659 19.21711,9.61489 4.84096,5.35829 7.28588,12.01861 7.28588,20.03101 0,11.26745 -3.66739,20.18125 -11.05106,26.84157 -7.38368,6.66031 -17.40787,9.96543 -30.12149,9.96543 h -42.4928 z m 24.25366,-103.96099 v 30.59738 h 11.54005 c 5.57443,0 9.8775,-1.45225 13.1048,-4.35675 3.2273,-2.90449 4.79205,-6.9107 4.79205,-12.11876 0,-9.46466 -6.35681,-14.22203 -19.11931,-14.22203 z m 0,50.32793 v 33.9025 h 14.42506 c 6.11231,0 10.90437,-1.5524 14.32727,-4.60713 3.42289,-3.05473 5.18323,-7.3614 5.18323,-12.81985 0,-5.20806 -1.71144,-9.26435 -5.18323,-12.16885 -3.4718,-2.90449 -8.31275,-4.35674 -14.66956,-4.35674 z m 100.73094,32.24994 h 48.31172 v 21.48327 h -75.74379 v -9.21427 c 0,-6.46 1.07577,-12.36915 3.2762,-17.62729 2.20043,-5.25815 5.18324,-10.31598 8.99733,-14.92311 3.86298,-4.60714 9.7308,-9.96543 17.79905,-16.17505 7.38368,-5.95922 12.46913,-11.26745 15.45193,-15.8245 2.98281,-4.60714 4.40087,-9.46466 4.40087,-14.67272 0,-11.16729 -5.57443,-16.67583 -16.77219,-16.67583 -9.7797,0 -19.11932,4.25659 -28.06775,12.76978 v -23.03567 c 9.9753,-7.01086 21.07526,-10.46621 33.54439,-10.46621 11.39335,0 20.39068,3.15489 26.99197,9.46466 6.6013,6.30977 9.9753,14.97318 9.9753,26.0904 0,6.20962 -0.92907,11.76822 -2.88501,16.67582 -1.85815,4.95768 -4.69426,9.61489 -8.31275,14.07179 -3.61849,4.35675 -9.38851,9.61489 -17.40787,15.77443 -7.67706,5.95923 -12.86031,10.56636 -15.50083,13.8214 -2.64052,3.25504 -4.05857,5.95923 -4.05857,8.4631 z"
         id="path1"
         style="stroke-width:0.494845" />
      <path
         d="M 0,0 H 84.74112 V 13.020162 H 0 Z M 96.770155,0 V 13.020162 H 217.59838 C 217.59838,13.020162 204.98256,0 189.13945,0 Z M 241.65645,0 v 13.120317 h 73.29887 L 310.65225,0 Z m 194.12709,0 h -68.31122 l -4.30307,13.120317 h 72.61429 z M 0,25.539548 H 84.74112 V 38.55971 H 0 Z m 96.770155,13.07024 H 232.12124 c 0,0 -1.27136,-10.315975 -4.40087,-13.020162 H 96.770155 Z m 144.886295,0 h 81.51382 l -3.66739,-13.07024 h -77.84643 z m 194.12709,0 v -13.07024 h -77.06405 l -3.76519,13.07024 z M 24.595952,50.277856 H 61.269838 V 63.29802 H 24.595952 Z m 96.867948,0 h 36.67389 V 63.29802 H 121.4639 Z m 72.76099,13.020164 h 36.67389 c 0,0 2.49382,-6.910704 2.49382,-13.020164 H 194.17599 V 63.29802 Z M 266.3502,50.277856 V 63.29802 h 65.08392 l -4.30307,-13.020164 z m 80.34025,13.020164 h 65.8174 V 50.277856 H 351.04242 Z M 24.595952,75.667173 H 61.269838 V 88.687336 H 24.595952 Z M 121.4639,88.687336 h 94.22744 c 0,0 7.62817,-6.910704 10.12199,-13.020163 H 121.4639 Z m 217.64728,-1.953025 -3.1295,-11.067138 H 266.3502 v 13.020163 h 36.67388 v -7.511634 l 2.54273,7.511634 h 67.72443 l 2.44493,-7.511634 v 7.511634 h 36.77168 V 75.667173 H 342.77857 Z M 24.595952,101.05649 h 36.673886 v 13.02016 H 24.595952 Z m 96.867948,13.12032 h 104.34943 c -2.49382,-6.20962 -10.12199,-13.02017 -10.12199,-13.02017 H 121.4639 Z m 144.8863,-13.12032 h 36.67388 v 13.02016 H 266.3502 Z m 103.07806,0 h -59.50948 l 4.49866,13.12032 h 50.65886 z m 5.72113,0 h 36.67388 v 13.02016 H 375.14939 Z M 24.595952,126.49588 h 36.673886 v 13.02016 H 24.595952 Z m 96.867948,0 h 36.67389 v 13.02016 H 121.4639 Z m 109.43488,0 h -36.67389 v 13.02016 h 39.21661 c -0.0489,-6.15954 -2.54272,-13.02016 -2.54272,-13.02016 z m 35.45142,0 h 36.67388 v 13.02016 H 266.3502 Z m 94.86311,0 h -43.03069 l 4.44977,13.07024 h 34.18005 z m 13.93608,0 h 36.67388 v 13.02016 H 375.14939 Z M 0.63568067,151.23419 H 85.376803 v 13.02016 H 0.63568067 Z m 231.58335933,0 H 96.770155 v 13.02016 H 227.72037 c 2.54273,-2.70419 4.49867,-13.02016 4.49867,-13.02016 z m 10.12199,0 h 60.68305 v 13.02016 h -60.68305 z m 109.92385,0 h -25.86731 l 4.49867,13.02016 h 16.96778 z m 22.88451,0 h 61.36763 v 13.02016 H 375.14939 Z M 0.63568067,176.77374 H 85.376803 V 189.7939 H 0.63568067 Z m 217.01159933,0 H 96.770155 v 13.02016 h 92.369295 c 16.4299,-0.0501 28.50783,-13.02016 28.50783,-13.02016 z m 24.69375,0 h 60.68305 v 13.02016 h -60.68305 z m 97.30804,12.97008 4.54756,-12.97008 h -9.63301 l 4.54756,12.97008 z m 35.50032,-12.97008 h 61.36763 v 13.02016 h -61.36763 z"
         id="path2"
         style="stroke-width:0.494845;fill:#000080" />
   </g>
</svg>