<svg
   id="Layer_1"
   viewBox="0 0 128 128"
   style="enable-background:new 0 0 128 128;">
   <defs
      id="defs10" /> &#10; <style
      type="text/css"
      id="style1">&#10; .st0{fill:url(#SVGID_1_);}&#10; .st1{fill:url(#SVGID_2_);}&#10;
   .st2{fill:url(#SVGID_3_);}&#10; .st3{fill:url(#SVGID_4_);}&#10; .st4{fill:url(#SVGID_5_);}&#10;</style>
   &#10;<g
      id="g10"
      transform="scale(2)">&#10; &#10; <linearGradient
         id="SVGID_1_"
         gradientUnits="userSpaceOnUse"
         x1="9.6500998"
         y1="55.453701"
         x2="55.733002"
         y2="9.3708"
         gradientTransform="matrix(1,0,0,-1,0,65.094)">&#10; <stop
            offset="0"
            style="stop-color:#91D443"
            id="stop1" />&#10; <stop
            offset="1"
            style="stop-color:#48BFE0"
            id="stop2" />&#10; </linearGradient>&#10; <path
         class="st0"
         d="m 45.8,55.9 c 0,4.5 3.6,8.1 8.1,8.1 h 10 V 54 c 0,-4.5 -3.6,-8.1 -8.1,-8.1 H 54 C 46.9,45.9 41.1,40.1 41.1,33 v -2 c 0,-4.5 -3.6,-8.1 -8.1,-8.1 H 31 C 23.9,22.9 18.1,17.1 18.1,10 V 10 8.1 C 18.2,3.6 14.5,0 10,0 H 0 v 10 c 0,4.5 3.6,8.1 8.1,8.1 H 10 c 7.1,0 12.9,5.8 12.9,12.9 v 1.9 c 0,4.5 3.6,8.1 8.1,8.1 h 2 c 7.1,0 12.9,5.8 12.9,12.9 v 0 2 z"
         id="path2"
         style="fill:url(#SVGID_1_)" />&#10; &#10; <linearGradient
         id="SVGID_2_"
         gradientUnits="userSpaceOnUse"
         x1="21.1064"
         y1="66.910004"
         x2="67.189301"
         y2="20.827"
         gradientTransform="matrix(1,0,0,-1,0,65.094)">&#10; <stop
            offset="0"
            style="stop-color:#91D443"
            id="stop3" />&#10; <stop
            offset="1"
            style="stop-color:#48BFE0"
            id="stop4" />&#10; </linearGradient>&#10; <path
         class="st1"
         d="m 64,31 c 0,-4.5 -3.6,-8.1 -8.1,-8.1 H 54 C 46.9,22.9 41.1,17.1 41.1,10 V 8.1 C 41,3.6 37.4,0 32.9,0 h -10 v 10.1 c 0.1,4.4 3.7,8 8.1,8 h 2 c 7.1,0 12.9,5.8 12.9,12.9 v 0 1.9 c 0,4.5 3.6,8.1 8.1,8.1 h 10 z"
         id="path4"
         style="fill:url(#SVGID_2_)" />&#10; &#10; <linearGradient
         id="SVGID_3_"
         gradientUnits="userSpaceOnUse"
         x1="32.528999"
         y1="78.332603"
         x2="78.6119"
         y2="32.249699"
         gradientTransform="matrix(1,0,0,-1,0,65.094)">&#10; <stop
            offset="0"
            style="stop-color:#91D443"
            id="stop5" />&#10; <stop
            offset="1"
            style="stop-color:#48BFE0"
            id="stop6" />&#10; </linearGradient>&#10; <path
         class="st2"
         d="M 64,8.1 C 64,3.8 60.5,0.2 56.2,0 H 45.7 v 10.1 c 0.1,4.4 3.7,8 8.1,8 H 64 Z"
         id="path6"
         style="fill:url(#SVGID_3_)" />&#10; &#10; <linearGradient
         id="SVGID_4_"
         gradientUnits="userSpaceOnUse"
         x1="-1.8193001"
         y1="43.989201"
         x2="44.263599"
         y2="-2.0936999"
         gradientTransform="matrix(1,0,0,-1,0,65.094)">&#10; <stop
            offset="0"
            style="stop-color:#91D443"
            id="stop7" />&#10; <stop
            offset="1"
            style="stop-color:#48BFE0"
            id="stop8" />&#10; </linearGradient>&#10; <path
         class="st3"
         d="m 0,33 c 0,4.5 3.6,8.1 8.1,8.1 H 10 c 7.1,0 12.9,5.8 12.9,12.9 v 1.9 c 0,4.5 3.6,8.1 8.1,8.1 H 41 V 53.9 c -0.1,-4.4 -3.7,-8 -8.1,-8 H 31 C 23.9,45.9 18.1,40.1 18.1,33 v 0 -1.9 C 18.1,26.6 14.5,23 10,23 H 0 Z"
         id="path8"
         style="fill:url(#SVGID_4_)" />&#10; &#10; <linearGradient
         id="SVGID_5_"
         gradientUnits="userSpaceOnUse"
         x1="-13.2407"
         y1="32.567799"
         x2="32.842201"
         y2="-13.5152"
         gradientTransform="matrix(1,0,0,-1,0,65.094)">&#10; <stop
            offset="0"
            style="stop-color:#91D443"
            id="stop9" />&#10; <stop
            offset="1"
            style="stop-color:#48BFE0"
            id="stop10" />&#10; </linearGradient>&#10; <path
         class="st4"
         d="m 0,55.9 c 0,4.3 3.5,7.9 7.8,8.1 H 18.3 V 53.9 c -0.1,-4.4 -3.7,-8 -8.1,-8 H 0 Z"
         id="path10"
         style="fill:url(#SVGID_5_)" />&#10;</g>&#10;</svg>