<svg
   viewBox="0 0 128 128"
   id="svg5">
   <defs
      id="defs5" />
   <g
      id="g5"
      transform="matrix(0.48138634,0,0,0.44366584,2.3825485,9.8074708e-4)">
      <path
         d="m 165.258,288.501 h 3.508 l 57.261,-28.634 0.953,-1.347 V 29.964 L 226.027,28.61 168.766,0 h -3.551 l 0.043,288.501"
         fill="#5294cf"
         id="path1" />
      <path
         d="M 90.741,288.501 H 87.184 L 29.972,259.867 28.811,257.87 28.222,31.128 29.972,28.61 87.184,0 h 3.601 l -0.044,288.501"
         fill="#1f5b98"
         id="path2" />
      <path
         d="m 87.285,0 h 81.426 V 288.501 H 87.285 Z"
         fill="#2d72b8"
         id="path3" />
      <path
         d="m 256,137.769 -1.935,-0.429 -27.628,-2.576 -0.41,0.204 -57.312,-2.292 h -81.43 l -57.313,2.292 V 91.264 l -0.06,0.032 0.06,-0.128 57.313,-13.28 h 81.43 l 57.312,13.28 21.069,11.199 v -7.2 L 256,94.193 255.078,92.395 226.886,72.236 226.027,72.515 168.715,54.756 H 87.285 L 29.972,72.515 V 28.61 L 0,63.723 v 30.666 l 0.232,-0.168 8.672,0.946 v 7.348 L 0,107.28 v 30.513 l 0.232,-0.024 8.672,0.128 v 12.807 L 1.422,150.816 0,150.68 v 30.525 l 8.904,4.788 v 7.433 L 0.373,194.368 0,194.088 v 30.661 l 29.972,35.118 v -43.901 l 57.313,17.759 h 81.43 l 57.481,-17.811 0.764,0.335 27.821,-19.862 1.219,-1.979 -8.904,-0.982 v -7.284 l -1.167,-0.466 -19.043,10.265 -0.69,1.44 -57.481,13.203 v 0.016 h -81.43 v -0.016 L 29.972,197.325 v -43.864 l 57.313,2.284 v 0.056 h 81.43 l 57.312,-2.34 1.305,0.6 26.779,-2.306 1.889,-0.923 -8.904,-0.128 V 137.897 L 256,137.769"
         fill="#1a476f"
         id="path4" />
      <path
         d="m 226.027,215.966 v 43.901 L 256,224.749 v -30.461 l -29.8,21.626 -0.173,0.052 m 0,-18.545 0.173,-0.04 29.8,-16.028 v -30.649 l -29.973,2.757 v 43.96 m 0.173,-106.213 -0.173,-0.04 v 43.8 L 256,137.769 V 107.135 L 226.2,91.208 m 0,-18.521 29.8,21.506 V 63.731 L 226.027,28.61 v 43.905 l 0.173,0.06 v 0.112"
         fill="#2d72b8"
         id="path5" />
   </g>
</svg>