<?xml version="1.0" encoding="UTF-8" standalone="no"?>
<svg
   viewBox="0 0 128 128"
   version="1.1"
   id="svg12"
   sodipodi:docname="geckoboard.svg"
   inkscape:version="1.3 (1:1.3+202307231459+0e150ed6c4)"
   xmlns:inkscape="http://www.inkscape.org/namespaces/inkscape"
   xmlns:sodipodi="http://sodipodi.sourceforge.net/DTD/sodipodi-0.dtd"
   xmlns="http://www.w3.org/2000/svg"
   xmlns:svg="http://www.w3.org/2000/svg">
  <defs
     id="defs1" />
  <sodipodi:namedview
     id="namedview1"
     pagecolor="#ffffff"
     bordercolor="#111111"
     borderopacity="1"
     inkscape:showpageshadow="0"
     inkscape:pageopacity="0"
     inkscape:pagecheckerboard="1"
     inkscape:deskcolor="#d1d1d1"
     inkscape:zoom="5.9296875"
     inkscape:cx="63.831357"
     inkscape:cy="64.084321"
     inkscape:window-width="1850"
     inkscape:window-height="1016"
     inkscape:window-x="838"
     inkscape:window-y="313"
     inkscape:window-maximized="1"
     inkscape:current-layer="svg12" />
  <g
     id="g2"
     transform="matrix(0.48000001,0,0,0.48000001,-0.15999973,0.05224977)">
    <path
       style="fill:#0ed152"
       d="M 20.751306,265.71447 C 15.836487,264.43445 8.1972245,258.42981 4.4399555,252.89337 L 0.66666664,247.33332 V 133.33333 19.333333 L 4.4399555,13.773288 C 6.5152644,10.715264 10.715264,6.5152644 13.773288,4.4399555 L 19.333333,0.66666664 127.07721,0.30273407 c 71.27765,-0.24075852 109.48011,0.10358528 112.87378,1.01740523 2.82145,0.7597358 6.4275,2.4320686 8.01345,3.7162951 l 2.88355,2.3349571 -12.22459,25.9809695 c -6.72353,14.289534 -13.89994,29.58097 -15.94759,33.98097 -2.04765,4.4 -6.25177,13.399999 -9.34248,19.999999 -3.09072,6.6 -7.29072,15.6 -9.33334,20 -22.62211,48.7303 -22.63905,48.7617 -30.60543,56.72561 -11.26297,11.25948 -17.81467,13.94105 -34.06123,13.94105 -12.69841,0 -13.74603,-0.22222 -22,-4.66666 -10.6342,-5.72611 -18.428185,-13.27954 -22.736528,-22.03478 -2.828676,-5.74831 -3.251894,-8.4083 -3.176572,-19.96522 0.103855,-15.93473 3.358554,-25.869 11.16327,-34.073453 7.49483,-7.87871 16.14253,-6.773404 20.00742,2.557251 1.47081,3.550862 1.17179,4.777532 -3.14958,12.920702 -5.42763,10.22779 -6.32616,19.63367 -2.70395,28.30499 8.91696,21.34652 38.30525,24.52461 52.09259,5.63335 C 193.17279,113.32194 186.99589,70.461268 154.30789,45.909357 140.5288,35.559898 130.99417,32.666665 110.66666,32.666665 H 93.999996 l -11.333332,5.615724 c -18.84838,9.339468 -31.629406,22.952429 -41.6718,44.384275 -6.18636,13.202541 -8.912006,24.431706 -9.895049,40.765806 -2.803048,46.57505 19.217985,84.81923 60.233515,104.60823 31.83144,15.35791 65.86906,15.20721 95.91547,-0.42465 26.9522,-14.02208 41.69535,-30.83675 58.57199,-66.80179 6.23221,-13.28118 13.32207,-28.3476 15.75524,-33.48093 L 265.99999,118 l 0.38697,14.66666 c 0.21283,8.06667 0.21283,37.16667 0,64.66667 l -0.38697,49.99999 -3.77329,5.56005 c -2.07531,3.05802 -6.27531,7.25802 -9.33333,9.33333 l -5.56005,3.77329 -111.99999,0.19348 c -61.599999,0.10641 -113.16191,-0.10914 -114.582024,-0.479 z"
       id="path7" />
    <path
       style="fill:#151039"
       d="m 124.66666,237.76452 c -15.7739,-3.50657 -25.881944,-6.93733 -35.741523,-12.13099 -21.740976,-11.45235 -36.510852,-26.2434 -46.233942,-46.3002 -8.857132,-18.27051 -10.009422,-23.86857 -10.017427,-48.66667 -0.0063,-19.36887 0.366679,-23.19034 3.118249,-31.953006 10.347709,-32.953362 32.502711,-57.141233 58.638191,-64.018635 6.807302,-1.791303 28.523672,-1.92402 34.236452,-0.209233 24.6942,7.412378 41.16978,22.420901 50.27064,45.794317 4.14559,10.646975 4.15198,33.235267 0.0128,45.209827 -4.35305,12.59325 -13.08375,25.09132 -20.35867,29.14363 -7.26848,4.04871 -19.43141,4.56362 -26.59144,1.12574 -15.44849,-7.41758 -20.90548,-26.18498 -12.13333,-41.72838 6.0776,-10.7689 5.30983,-17.308402 -2.50664,-21.350456 -5.6797,-2.937087 -8.71222,-2.501111 -13.82447,1.987501 -9.220654,8.095845 -15.186189,26.422495 -13.742104,42.216975 1.492876,16.32812 11.374984,29.59505 28.222224,37.88892 8.58217,4.22499 10.19285,4.559 21.95629,4.55306 11.36572,-0.006 13.45074,-0.40371 19.91653,-3.80154 3.972,-2.08732 10.44566,-7.01897 14.38592,-10.95922 7.84805,-7.84805 8.24738,-8.61885 42.08435,-81.23283 8.87084,-19.036768 17.66422,-37.781058 28.6165,-60.999998 3.37263,-7.149999 6.87957,-12.999999 7.7932,-12.999999 2.14508,0 7.97021,6.940612 11.29526,13.458256 2.42222,4.747943 2.60294,8.083945 2.60294,48.050103 v 42.947928 l -12.1682,26.10519 c -6.6925,14.35785 -14.55463,30.90518 -17.47139,36.77185 -18.42841,37.06622 -58.90883,62.41044 -98.78091,61.84533 -6.00206,-0.0851 -12.11283,-0.42143 -13.5795,-0.74747 z"
       id="path2" />
  </g>
</svg>
