<?xml version="1.0" encoding="UTF-8" standalone="no"?>
<!-- Uploaded to: SVG Repo, www.svgrepo.com, Generator: SVG Repo Mixer Tools -->

<svg
   viewBox="0 0 128 128"
   version="1.1"
   preserveAspectRatio="xMidYMid"
   id="svg4"
   sodipodi:docname="looker-studio.svg"
   inkscape:version="1.3 (1:1.3+202307231459+0e150ed6c4)"
   xmlns:inkscape="http://www.inkscape.org/namespaces/inkscape"
   xmlns:sodipodi="http://sodipodi.sourceforge.net/DTD/sodipodi-0.dtd"
   xmlns="http://www.w3.org/2000/svg"
   xmlns:svg="http://www.w3.org/2000/svg">
  <defs
     id="defs4" />
  <sodipodi:namedview
     id="namedview4"
     pagecolor="#ffffff"
     bordercolor="#111111"
     borderopacity="1"
     inkscape:showpageshadow="0"
     inkscape:pageopacity="0"
     inkscape:pagecheckerboard="1"
     inkscape:deskcolor="#d1d1d1"
     inkscape:zoom="1.84375"
     inkscape:cx="63.728814"
     inkscape:cy="151.32203"
     inkscape:window-width="1850"
     inkscape:window-height="1016"
     inkscape:window-x="838"
     inkscape:window-y="313"
     inkscape:window-maximized="1"
     inkscape:current-layer="svg4" />
  <g
     id="g4"
     transform="matrix(0.31013135,0,0,0.31013135,24.303941,9.9613178e-6)">
    <path
       d="M 127.12849,0 C 113.79778,0.00584717 101.556,7.3600638 95.290525,19.126605 89.025047,30.893146 89.756453,45.155358 97.19274,56.219234 l 15.41354,-15.3918 c -0.50943,-1.535416 -0.7664,-3.14331 -0.7609,-4.761023 0,-8.404604 6.81328,-15.217881 15.21789,-15.217881 8.4046,0 15.21788,6.813277 15.21788,15.217881 0,8.404604 -6.81328,15.217881 -15.21788,15.217881 -1.61046,0.0035 -3.21088,-0.253405 -4.73929,-0.760894 l -15.3918,15.3918 c 12.81764,8.693276 29.75442,8.232752 42.08071,-1.144206 12.32629,-9.376957 17.28985,-25.576647 12.33234,-40.249335 C 156.38771,9.8489683 142.61604,-0.02057866 127.12849,0 Z"
       fill="#34a853"
       id="path1" />
    <path
       d="M 112.7803,105.11211 C 112.8038,92.92882 108.85828,81.069377 101.54071,71.328416 L 81.540062,91.30732 c 6.254918,11.44042 4.004003,25.66048 -5.478438,34.60981 L 86.93154,152.4832 c 16.10557,-10.37254 25.84121,-28.21439 25.84876,-47.37109 z"
       fill="#fbbc04"
       id="path2" />
    <path
       d="m 56.887094,133.78695 h -0.521756 c -12.267797,0.001 -23.179491,-7.79637 -27.152498,-19.403 -3.973006,-11.60664 -0.12852,-24.455179 9.566561,-31.97211 9.695082,-7.51693 23.096268,-8.039559 33.347314,-1.3005 L 91.931701,61.306354 C 72.673721,45.693665 45.477824,44.489312 24.915141,58.338568 4.3524574,72.187825 -4.7537424,97.842149 2.4754986,121.55636 c 7.229241,23.71422 29.0982014,39.92581 53.8898394,39.94888 3.825317,0.002 7.641332,-0.37681 11.391671,-1.13048 z"
       fill="#ea4335"
       id="path3" />
    <path
       d="m 127.88938,156.76595 c -12.51767,-0.0127 -24.96949,1.81115 -36.957712,5.41322 l 15.848342,38.71864 c 6.8987,-1.70962 13.98024,-2.57108 21.08763,-2.5653 41.18314,0.012 76.62339,29.11241 84.64871,69.50604 8.02532,40.39364 -13.59922,80.83154 -51.65,96.58557 -38.05078,15.75403 -81.931301,2.43694 -104.808214,-31.80775 -22.876913,-34.24468 -18.379378,-79.88038 10.742321,-109.00044 6.076654,-6.05767 13.013908,-11.18552 20.587619,-15.21788 L 71.713658,169.78811 C 13.286575,198.40252 -14.376725,266.29711 7.4154611,327.59645 29.207647,388.89579 93.520354,424.0925 156.89839,409.40466 220.27644,394.71682 262.55091,334.81856 255.15756,270.18229 247.7642,205.54602 193.05581,156.74105 127.99808,156.74421 Z"
       fill="#4285f4"
       id="path4" />
  </g>
</svg>
