<svg
   viewBox="0 0 128 128"
   id="svg1">
   <defs
      id="defs1" />
   <path
      id="path1"
      style="fill:#ffffff"
      d="M 88.734375 1.8828125 C 82.480381 2.1338122 74.918589 6.0498334 70.433594 11.298828 C 66.413598 15.945823 62.892798 23.386632 63.841797 30.515625 C 70.81279 31.055624 77.932489 26.972745 82.271484 21.71875 C 86.60948 16.467755 89.530374 9.1558052 88.734375 1.8828125 z M 86.800781 31.824219 C 77.798879 31.750171 69.421792 37.617188 64.826172 37.617188 C 59.921177 37.617188 52.346258 32.067703 44.322266 32.220703 C 33.773276 32.374703 24.053229 38.351025 18.615234 47.791016 C 7.6682453 66.799997 15.822245 94.960781 26.490234 110.38477 C 31.711229 117.92376 37.933477 126.41937 46.105469 126.10938 C 53.980461 125.79938 56.952947 121.02344 66.460938 121.02344 C 75.971928 121.02344 78.646852 126.10903 86.964844 125.95703 C 95.429835 125.79903 100.80443 118.2594 105.98242 110.69141 C 111.97242 101.93842 114.44013 93.461484 114.57812 93.021484 C 114.39813 92.941484 98.078297 86.684747 97.904297 67.884766 C 97.763297 52.166781 110.74308 44.611093 111.33008 44.246094 C 104.02909 33.558104 92.658418 32.090875 88.607422 31.921875 C 88.002672 31.860625 87.400908 31.829155 86.800781 31.824219 z M 38.857422 61.417969 C 40.123046 61.417969 41.169922 62.44922 41.169922 63.714844 C 41.169922 64.996092 40.123046 66.011719 38.857422 66.011719 C 37.576173 66.011719 36.529297 64.996092 36.529297 63.714844 C 36.529297 62.44922 37.576173 61.417969 38.857422 61.417969 z M 55.013672 62.839844 C 61.576165 62.839844 65.669922 67.386726 65.669922 74.652344 L 65.669922 74.683594 C 65.669922 81.933587 61.59179 86.511719 55.013672 86.511719 C 48.404303 86.511719 44.341797 81.933587 44.341797 74.683594 L 44.341797 74.652344 C 44.341797 67.386726 48.466803 62.839844 55.013672 62.839844 z M 77.404297 62.839844 C 82.404292 62.839844 85.513672 65.574222 85.794922 69.199219 L 85.810547 69.402344 L 81.951172 69.402344 L 81.919922 69.214844 C 81.638672 67.464845 79.966794 66.214839 77.388672 66.230469 C 74.888674 66.230469 73.107422 67.402346 73.107422 69.324219 L 73.107422 69.339844 C 73.107422 70.933592 74.24805 71.933594 77.060547 72.527344 L 79.482422 73.042969 C 84.232417 74.042968 86.216797 75.949222 86.216797 79.355469 L 86.216797 79.371094 C 86.216797 83.761714 82.826166 86.511719 77.419922 86.511719 C 72.185552 86.511719 68.857422 83.93359 68.576172 80.042969 L 68.560547 79.824219 L 72.466797 79.824219 L 72.482422 79.980469 C 72.669922 81.871092 74.68555 83.121094 77.544922 83.121094 C 80.263669 83.121094 82.169922 81.777342 82.169922 79.839844 L 82.169922 79.824219 C 82.169922 78.19922 80.998044 77.214843 78.091797 76.589844 L 75.669922 76.089844 C 71.060551 75.121095 69.060547 72.96484 69.060547 69.605469 L 69.060547 69.589844 C 69.060547 65.558598 72.529302 62.839844 77.404297 62.839844 z M 55.013672 66.324219 C 51.013676 66.324219 48.451172 69.558599 48.451172 74.652344 L 48.451172 74.683594 C 48.451172 79.746089 50.951176 83.027344 55.013672 83.027344 C 59.029293 83.027344 61.560547 79.746089 61.560547 74.683594 L 61.560547 74.652344 C 61.560547 69.558599 59.013668 66.324219 55.013672 66.324219 z M 36.904297 68.871094 L 40.794922 68.871094 L 40.794922 85.949219 L 36.904297 85.949219 L 36.904297 68.871094 z " />
</svg>