<svg viewBox="0 0 128 128"
   id="svg1">
   <defs
      id="defs1" />
   <path
      id="path1"
      d="M 88.734375 1.8828125 C 82.480381 2.1338122 74.918589 6.0498334 70.433594 11.298828 C 66.413598 15.945823 62.892798 23.386632 63.841797 30.515625 C 70.81279 31.055624 77.932489 26.972745 82.271484 21.71875 C 86.60948 16.467755 89.530374 9.1558052 88.734375 1.8828125 z M 86.800781 31.824219 C 77.798879 31.750171 69.421792 37.617188 64.826172 37.617188 C 59.921177 37.617188 52.346258 32.067703 44.322266 32.220703 C 33.773276 32.374703 24.053229 38.351025 18.615234 47.791016 C 7.6682453 66.799997 15.822245 94.960781 26.490234 110.38477 C 31.711229 117.92376 37.933477 126.41937 46.105469 126.10938 C 53.980461 125.79938 56.952947 121.02344 66.460938 121.02344 C 75.971928 121.02344 78.646852 126.10903 86.964844 125.95703 C 95.429835 125.79903 100.80443 118.2594 105.98242 110.69141 C 111.97242 101.93842 114.44013 93.461484 114.57812 93.021484 C 114.39813 92.941484 98.078297 86.684747 97.904297 67.884766 C 97.763297 52.166781 110.74308 44.611093 111.33008 44.246094 C 104.02909 33.558104 92.658418 32.090875 88.607422 31.921875 C 88.002672 31.860625 87.400908 31.829155 86.800781 31.824219 z M 72.636719 64.617188 C 77.558589 64.617188 80.628906 68.027349 80.628906 73.476562 L 80.628906 73.5 C 80.628906 78.937495 77.570308 82.371094 72.636719 82.371094 C 67.679693 82.371094 64.632812 78.937495 64.632812 73.5 L 64.632812 73.476562 C 64.632812 68.027349 67.726568 64.617188 72.636719 64.617188 z M 88.867188 64.617188 C 92.617184 64.617188 94.949226 66.667971 95.160156 69.386719 L 95.171875 69.539062 L 92.277344 69.539062 L 92.253906 69.398438 C 92.042969 68.085939 90.789061 67.148436 88.855469 67.160156 C 86.980471 67.160156 85.644531 68.039064 85.644531 69.480469 L 85.644531 69.492188 C 85.644531 70.687498 86.500002 71.4375 88.609375 71.882812 L 90.425781 72.269531 C 93.988281 73.019531 95.476562 74.449221 95.476562 77.003906 L 95.476562 77.015625 C 95.476563 80.308591 92.93359 82.371094 88.878906 82.371094 C 84.953129 82.371095 82.457031 80.437496 82.246094 77.519531 L 82.234375 77.355469 L 85.164062 77.355469 L 85.175781 77.472656 C 85.316406 78.890623 86.828127 79.828125 88.972656 79.828125 C 91.011717 79.828125 92.441406 78.820311 92.441406 77.367188 L 92.441406 77.355469 C 92.441406 76.13672 91.562497 75.398437 89.382812 74.929688 L 87.566406 74.554688 C 84.109379 73.828125 82.609375 72.210935 82.609375 69.691406 L 82.609375 69.679688 C 82.609375 66.656253 85.210941 64.617188 88.867188 64.617188 z M 72.636719 67.230469 C 69.636722 67.230469 67.714844 69.656253 67.714844 73.476562 L 67.714844 73.5 C 67.714844 77.296871 69.589847 79.757812 72.636719 79.757812 C 75.648435 79.757812 77.546875 77.296871 77.546875 73.5 L 77.546875 73.476562 C 77.546875 69.656253 75.636716 67.230469 72.636719 67.230469 z M 25.410156 68.894531 C 27.14453 68.894531 28.410156 69.785158 28.960938 71.203125 L 29.160156 71.203125 C 29.78125 69.808595 31.257814 68.894531 33.039062 68.894531 C 35.617185 68.894531 37.164062 70.476565 37.164062 73.136719 L 37.164062 81.949219 L 34.246094 81.949219 L 34.246094 73.851562 C 34.246094 72.187501 33.484374 71.34375 31.925781 71.34375 C 30.402346 71.34375 29.417969 72.48047 29.417969 73.945312 L 29.417969 81.949219 L 26.5 81.949219 L 26.5 73.640625 C 26.5 72.222658 25.621093 71.34375 24.191406 71.34375 C 22.750002 71.34375 21.695312 72.562502 21.695312 74.15625 L 21.695312 81.949219 L 18.777344 81.949219 L 18.777344 69.140625 L 21.695312 69.140625 L 21.695312 71.132812 L 21.894531 71.132812 C 22.445313 69.703126 23.734377 68.894531 25.410156 68.894531 z M 44.710938 68.894531 C 48.003902 68.894531 49.855469 70.488284 49.855469 73.195312 L 49.855469 81.949219 L 46.972656 81.949219 L 46.972656 80.191406 L 46.773438 80.191406 C 46.070313 81.433592 44.710936 82.160156 43.023438 82.160156 C 40.58594 82.160156 38.816406 80.660155 38.816406 78.328125 L 38.816406 78.304688 C 38.816406 76.019534 40.562503 74.683594 43.679688 74.496094 L 46.972656 74.296875 L 46.972656 73.195312 C 46.972656 71.91797 46.140623 71.214844 44.570312 71.214844 C 43.234376 71.214844 42.367187 71.695313 42.074219 72.539062 L 42.0625 72.585938 L 39.308594 72.585938 L 39.320312 72.480469 C 39.601562 70.324221 41.664066 68.894531 44.710938 68.894531 z M 57.753906 68.894531 C 61.046872 68.894531 63.015625 70.722659 63.34375 73.371094 L 63.34375 73.417969 L 60.589844 73.417969 L 60.578125 73.382812 C 60.308594 72.140626 59.359373 71.25 57.765625 71.25 C 55.77344 71.25 54.601562 72.820315 54.601562 75.503906 L 54.601562 75.527344 C 54.601562 78.246091 55.785158 79.839844 57.765625 79.839844 C 59.277342 79.839844 60.203126 79.148436 60.566406 77.800781 L 60.589844 77.753906 L 63.34375 77.742188 L 63.320312 77.835938 C 62.898438 80.460935 61.011716 82.207031 57.765625 82.207031 C 53.91016 82.207031 51.636719 79.710934 51.636719 75.527344 L 51.636719 75.503906 C 51.636719 71.367191 53.898442 68.894531 57.753906 68.894531 z M 46.972656 76.21875 L 44.089844 76.40625 C 42.460939 76.511719 41.699219 77.109376 41.699219 78.164062 L 41.699219 78.1875 C 41.699219 79.277343 42.625001 79.921875 43.914062 79.921875 C 45.671873 79.921875 46.972656 78.773436 46.972656 77.25 L 46.972656 76.21875 z " />
</svg>