<?xml version="1.0" encoding="UTF-8" standalone="no"?>
<svg
   viewBox="0 0 128 128"
   version="1.1"
   id="svg1"
   sodipodi:docname="microsoft-powerbi.svg"
   inkscape:version="1.3 (1:1.3+202307231459+0e150ed6c4)"
   xmlns:inkscape="http://www.inkscape.org/namespaces/inkscape"
   xmlns:sodipodi="http://sodipodi.sourceforge.net/DTD/sodipodi-0.dtd"
   xmlns="http://www.w3.org/2000/svg"
   xmlns:svg="http://www.w3.org/2000/svg">
  <defs
     id="defs1" />
  <sodipodi:namedview
     id="namedview1"
     pagecolor="#ffffff"
     bordercolor="#111111"
     borderopacity="1"
     inkscape:showpageshadow="0"
     inkscape:pageopacity="0"
     inkscape:pagecheckerboard="1"
     inkscape:deskcolor="#d1d1d1"
     inkscape:zoom="5.9296875"
     inkscape:cx="63.915679"
     inkscape:cy="59.530962"
     inkscape:window-width="1850"
     inkscape:window-height="1016"
     inkscape:window-x="838"
     inkscape:window-y="313"
     inkscape:window-maximized="1"
     inkscape:current-layer="svg1" />
  <path
     d="m 7.5849103,103.42039 c -4.1648291,0 -7.54505824,-3.3856 -7.54505824,-7.561177 V 74.562158 c 0,-4.175577 3.38560314,-7.56118 7.54505824,-7.56118 a 7.577302,7.577302 0 0 1 7.5504327,7.56118 v 21.30243 c 0,4.175582 -3.385603,7.561182 -7.5504327,7.561182 z m 24.2903587,8.16844 c -4.170202,0 -7.545058,-3.3856 -7.545058,-7.56118 V 66.409842 c 0,-4.180952 3.374856,-7.56118 7.545058,-7.56118 4.170204,0 7.550433,3.385603 7.550433,7.56118 v 37.617808 c 0,4.18096 -3.385603,7.56118 -7.550433,7.56118 z m 24.290359,7.98573 c -4.170204,0 -7.545058,-3.3856 -7.545058,-7.56118 V 58.381126 c 0,-4.180951 3.385604,-7.561182 7.545058,-7.561182 4.159455,0 7.545059,3.385604 7.545059,7.561182 v 53.621504 c 0,4.18095 -3.374856,7.56118 -7.545059,7.56118 z M 119.84721,31.978796 14.506588,0.40132961 C 9.3368256,-1.2108623 4.672217,2.0135216 4.672217,7.0274386 V 59.729993 a 14.939645,14.939645 0 0 1 2.9180673,-0.290195 14.993385,14.993385 0 0 1 2.9234417,0.290195 V 7.0650564 c 0,-0.3546823 0,-1.1822742 1.289754,-1.1822742 a 3.4393428,3.4393428 0 0 1 1.031802,0.1665936 L 118.18128,37.626842 c 2.28931,0.687869 3.98749,3.020173 3.98749,4.648487 v 67.550841 c 0,0.38693 0,1.17153 -1.28976,1.17153 a 3.2781235,3.2781235 0 0 1 -1.02642,-0.1666 l -24.301113,-7.27098 v 6.09946 l 22.570693,6.78733 a 9.5656721,9.5656721 0 0 0 2.7031,0.41379 6.8249458,6.8249458 0 0 0 7.13127,-7.0399 V 42.21084 c 0,-4.379788 -3.58444,-8.883178 -8.16844,-10.25354 z M 80.455986,127.95796 c -4.170202,0 -7.545058,-3.38561 -7.545058,-7.56118 V 50.013849 c 0,-4.175576 3.385603,-7.566554 7.545058,-7.566554 4.159455,0 7.545058,3.385603 7.545058,7.566554 v 70.442041 c 0,4.18095 -3.374854,7.56118 -7.545058,7.56118 z"
     fill="#333333"
     id="path1"
     style="stroke-width:5.37397" />
</svg>
