<svg
   viewBox="0 0 128 128"
   id="svg1">
   <g
      id="Group_397"
      data-name="Group 397"
      transform="matrix(0.89388686,0,0,0.89388686,-1280.9971,-181.96144)">
      <circle
         id="Ellipse_154"
         data-name="Ellipse 154"
         cx="6.6739998"
         cy="6.6739998"
         r="6.6739998"
         transform="rotate(-45,1017.6291,-1703.9058)"
         fill="#5d88d6" />
      <circle
         id="Ellipse_155"
         data-name="Ellipse 155"
         cx="7.415"
         cy="7.415"
         r="7.415"
         transform="rotate(-45,1048.4259,-1715.6152)"
         fill="#5d88d6" />
      <circle
         id="Ellipse_156"
         data-name="Ellipse 156"
         cx="8.1549997"
         cy="8.1549997"
         r="8.1549997"
         transform="rotate(-45,1079.227,-1727.3215)"
         fill="#5d88d6" />
      <circle
         id="Ellipse_157"
         data-name="Ellipse 157"
         cx="8.8959999"
         cy="8.8959999"
         r="8.8959999"
         transform="rotate(-45,1109.9912,-1739.0204)"
         fill="#5d88d6" />
      <circle
         id="Ellipse_158"
         data-name="Ellipse 158"
         cx="5.934"
         cy="5.934"
         r="5.934"
         transform="rotate(-45,999.81462,-1660.8978)"
         fill="#32dbfc" />
      <circle
         id="Ellipse_159"
         data-name="Ellipse 159"
         cx="6.6739998"
         cy="6.6739998"
         r="6.6739998"
         transform="rotate(-45,1030.6114,-1672.6072)"
         fill="#32dbfc" />
      <circle
         id="Ellipse_160"
         data-name="Ellipse 160"
         cx="7.415"
         cy="7.415"
         r="7.415"
         transform="rotate(-45,1061.3804,-1684.3041)"
         fill="#32dbfc" />
      <circle
         id="Ellipse_161"
         data-name="Ellipse 161"
         cx="8.1549997"
         cy="8.1549997"
         r="8.1549997"
         transform="rotate(-45,1092.1611,-1696.0089)"
         fill="#32dbfc" />
      <circle
         id="Ellipse_162"
         data-name="Ellipse 162"
         cx="8.8959999"
         cy="8.8959999"
         r="8.8959999"
         transform="rotate(-45,1122.9756,-1707.7167)"
         fill="#32dbfc" />
      <circle
         id="Ellipse_163"
         data-name="Ellipse 163"
         cx="5.1929998"
         cy="5.1929998"
         r="5.1929998"
         transform="rotate(-45,982.03476,-1617.9051)" />
      <circle
         id="Ellipse_164"
         data-name="Ellipse 164"
         cx="5.934"
         cy="5.934"
         r="5.934"
         transform="rotate(-45,1012.7825,-1629.5953)" />
      <circle
         id="Ellipse_165"
         data-name="Ellipse 165"
         cx="6.6739998"
         cy="6.6739998"
         r="6.6739998"
         transform="rotate(-45,1043.5978,-1641.3084)" />
      <circle
         id="Ellipse_166"
         data-name="Ellipse 166"
         cx="7.415"
         cy="7.415"
         r="7.415"
         transform="rotate(-45,1074.3775,-1653.0107)" />
      <circle
         id="Ellipse_167"
         data-name="Ellipse 167"
         cx="8.1549997"
         cy="8.1549997"
         r="8.1549997"
         transform="rotate(-45,1105.1645,-1664.7101)" />
      <circle
         id="Ellipse_168"
         data-name="Ellipse 168"
         cx="8.8959999"
         cy="8.8959999"
         r="8.8959999"
         transform="rotate(-45,1135.9104,-1676.4095)" />
      <circle
         id="Ellipse_169"
         data-name="Ellipse 169"
         cx="5.934"
         cy="5.934"
         r="5.934"
         transform="rotate(-45,1088.355,-1624.2274)"
         fill="#5d88d6" />
      <circle
         id="Ellipse_170"
         data-name="Ellipse 170"
         cx="5.934"
         cy="5.934"
         transform="translate(1451.396,306.262)"
         fill="#5d88d6"
         r="5.934" />
      <circle
         id="Ellipse_171"
         data-name="Ellipse 171"
         cx="5.934"
         cy="5.934"
         transform="translate(1433.064,324.612)"
         fill="#5d88d6"
         r="5.934" />
      <circle
         id="Ellipse_172"
         data-name="Ellipse 172"
         cx="5.934"
         cy="5.934"
         transform="translate(1469.734,324.602)"
         fill="#5d88d6"
         r="5.934" />
      <circle
         id="Ellipse_173"
         data-name="Ellipse 173"
         cx="5.934"
         cy="5.934"
         r="5.934"
         transform="rotate(-45,1150.9859,-1650.161)"
         fill="#5d88d6" />
      <circle
         id="Ellipse_174"
         data-name="Ellipse 174"
         cx="5.934"
         cy="5.934"
         r="5.934"
         transform="rotate(-45,1119.657,-1637.1941)"
         fill="#5d88d6" />
   </g>
</svg>