<svg
   viewBox="0 0 128 128"
   version="1.1"
   preserveAspectRatio="xMidYMid"
   id="svg1">
   <g
      id="g1">
      <path
         d="m 117.07643,0.0016407 c 0.32757,-0.01975188 0.63838,0.14008462 0.80123,0.41203974 0.16285,0.27195513 0.14936,0.60863736 -0.0348,0.86792746 v 0 L 84.694054,44.251939 c -0.242932,0.261673 -0.591716,0.411469 -0.958058,0.411469 -0.366342,0 -0.715125,-0.149796 -0.958058,-0.411469 v 0 L 71.089626,31.817971 c -0.285481,-0.282799 -0.690037,-0.426664 -1.099833,-0.391112 -0.409795,0.03555 -0.780534,0.246674 -1.007895,0.573964 v 0 l -7.089632,8.594067 c -0.22431,0.483931 -0.150624,1.046469 0.191611,1.462819 v 0 l 21.077284,20.845182 c 0.242933,0.261674 0.591716,0.41147 0.958059,0.41147 0.366342,0 0.715125,-0.149796 0.958058,-0.41147 v 0 L 126.4654,18.46974 c 0.24436,-0.250616 0.62304,-0.335735 0.95892,-0.215539 0.33588,0.120199 0.56256,0.421948 0.57398,0.764097 v 0 108.065802 c 0.0159,0.24682 -0.08,0.48826 -0.26321,0.6631 -0.18322,0.17485 -0.43623,0.26631 -0.69486,0.25117 v 0 H 0.95975553 c -0.25862887,0.0152 -0.5116371,-0.0763 -0.69485873,-0.25117 -0.18322163,-0.17484 -0.27905645,-0.41628 -0.26319961,-0.6631 v 0 V 0.91590305 C -0.01415965,0.66909695 0.08167517,0.42765456 0.2648968,0.25280859 0.44811843,0.07796262 0.70112666,-0.01349129 0.95975553,0.0016407 v 0 z M 84.502443,72.959777 c -5.704496,-0.09572 -11.202228,2.037268 -15.218408,5.904382 -4.01618,3.867116 -6.201951,9.132447 -6.050487,14.575095 0,12.616826 9.580583,20.662326 22.035341,20.662326 5.765471,0.13691 11.419099,-1.53302 16.095381,-4.75417 0.43349,-0.37562 0.51487,-0.99691 0.19161,-1.46281 v 0 l -3.449008,-4.93703 c -0.387768,-0.42428 -1.047612,-0.503 -1.532894,-0.18284 -2.997802,1.95369 -6.526087,3.03368 -10.155419,3.10849 -6.706408,0 -10.921865,-4.02275 -11.688311,-8.776913 0.01391,-0.19622 0.177611,-0.352437 0.383222,-0.365711 v 0 h 28.93336 c 0.61684,-0.03979 1.10795,-0.508473 1.14967,-1.097115 v 0 -1.097114 c 0,-12.799672 -8.430911,-21.57659 -20.694057,-21.57659 z M 55.952304,66.011382 c -5.819874,-4.539686 -13.18387,-6.882141 -20.69406,-6.582688 -13.029594,0 -21.077284,7.314098 -21.077284,16.091017 0,19.930919 31.807538,13.531083 31.807538,22.856562 0,2.925647 -3.065787,5.851277 -9.580584,5.851277 -6.187415,0.0487 -12.156994,-2.17758 -16.670215,-6.216988 -0.269445,-0.240395 -0.634469,-0.358173 -1.001502,-0.32315 -0.367033,0.03502 -0.700388,0.219457 -0.914615,0.506001 v 0 l -4.981903,6.582697 c -0.323259,0.46589 -0.241876,1.08719 0.191611,1.46282 5.173516,4.57131 12.454759,7.6798 22.610178,7.6798 14.945709,0 22.226953,-7.3141 22.610176,-16.822423 0,-19.748071 -31.807537,-14.079644 -31.807537,-22.490858 0,-3.108493 2.874175,-5.302721 7.856078,-5.302721 5.491806,-0.07182 10.840366,1.672608 15.137322,4.937015 0.25262,0.197495 0.57802,0.289434 0.902591,0.255019 0.32457,-0.03441 0.620886,-0.192275 0.821914,-0.437871 v 0 l 4.981904,-6.399836 c 0.206954,-0.241071 0.303298,-0.551596 0.267234,-0.861329 -0.03606,-0.309734 -0.201485,-0.592504 -0.458846,-0.784344 z m 28.74175,14.993903 c 5.211657,-0.278198 9.710706,3.448135 10.155419,8.411215 -0.01391,0.196213 -0.177611,0.352431 -0.383223,0.365703 v 0 H 74.921859 c -0.205612,-0.01327 -0.369315,-0.16949 -0.383223,-0.365703 0.640696,-4.865588 5.017331,-8.490531 10.155418,-8.411215 z"
         fill="#2cb134"
         id="path1"
         style="stroke-width:0.488438" />
   </g>
</svg>