<svg
   version="1.1"
   id="svg1"
   viewBox="0 0 128 128">
   <g
      id="g2"
      transform="matrix(0.12202097,0,0,0.12202097,-10.005718,25.996903)">
      <path
         style="fill:#febf00"
         d="M 993,438.00426 C 951.74006,433.93911 920.47221,416.70383 896.6794,384.91098 893.55573,380.73702 891,377.03128 891,376.676 c 0,-0.35527 -1.29924,-2.79021 -2.88721,-5.41098 -8.96401,-14.79413 -15.0587,-38.85391 -15.09212,-59.57865 -0.077,-47.76 26.34094,-91.16052 68.47933,-112.5006 16.65667,-8.43542 31.0522,-12.34574 52.5,-14.26081 20.1523,-1.79939 42.726,0.96155 62.653,7.66294 18.3527,6.17199 32.9997,14.78821 52.0567,30.62291 l 8.2097,6.82153 -8.5564,8.23383 c -4.706,4.52861 -8.9475,8.37872 -9.4256,8.5558 -0.4781,0.17708 -3.022,-1.63745 -5.6533,-4.03229 -19.0921,-17.37669 -41.146,-28.64509 -65.9764,-33.71046 -34.6437,-7.06728 -73.28588,4.55034 -99.21004,29.82711 -14.98958,14.61525 -23.71528,30.75563 -29.24374,54.09367 -2.84662,12.01682 -1.13688,35.2652 3.572,48.57059 11.16054,31.53521 32.70945,53.83625 64.07408,66.31053 13.65264,5.42989 22.48164,7.18396 39.4138,7.83037 24.4725,0.93427 43.7743,-4.06023 61.5862,-15.936 6.9639,-4.64301 19.7145,-17.23978 24.1245,-23.8333 6.2012,-9.2716 11.9259,-24.04784 12.569,-32.44219 l 0.3065,-4 -38.75,-0.26174 -38.75,-0.26175 V 327.98826 317 h 52 52 v 6.63067 c 0,7.47158 -2.3927,24.08487 -4.6619,32.36933 -8.3752,30.5766 -28.9188,56.23022 -55.8827,69.78323 -8.0562,4.04929 -22.0079,8.57729 -32.4554,10.53332 -10.4211,1.95108 -33.5301,2.81778 -45,1.68771 z"
         id="path5" />
      <path
         style="fill:#c41515"
         d="M 649,311.5 V 190 h 2.91659 c 1.90395,0 3.55316,0.83409 4.75,2.40231 1.00838,1.32127 11.95841,14.00592 24.33341,28.18812 12.375,14.1822 25.875,29.68303 30,34.44629 4.125,4.76326 17.625,20.27757 30,34.47625 12.375,14.19867 25.875,29.71575 30,34.4824 4.125,4.76665 15.825,18.27282 26,30.0137 l 18.5,21.34708 0.25518,-92.67808 L 816.01036,190 H 828.00518 840 v 121.56336 121.56336 l -2.90416,-0.31336 C 834.14236,432.49468 832.36523,430.51343 738.1473,322.5 729.03198,312.05 721.33184,303.275 721.03589,303 c -0.29595,-0.275 -3.26154,-3.65 -6.59019,-7.5 -3.32865,-3.85 -13.67816,-15.74927 -22.9989,-26.44282 L 674.5,249.61436 674.24477,341.30718 673.98953,433 H 661.49477 649 Z"
         id="path3" />
      <path
         style="fill:#0a0a0a"
         d="m 293.63282,435.44748 c -36.46442,-7.2459 -62.69128,-34.47768 -70.60483,-73.31014 -4.65985,-22.86624 -0.35535,-48.44418 11.40663,-67.77981 10.68333,-17.56244 22.06525,-28.44472 38.06538,-36.39441 13.3892,-6.65244 21.36459,-8.29802 40.5,-8.35647 14.17817,-0.0433 17.76645,0.27905 25.5,2.29077 9.6952,2.522 19.23763,6.83023 27.97705,12.63113 10.86291,7.21039 24.22793,22.64452 30.28316,34.97145 C 401.79716,309.75397 406,327.5532 406,338.63099 V 344 h -80.64853 -80.64853 l 0.58395,8.25 c 1.9201,27.12672 20.08729,51.5713 45.03212,60.59225 6.58205,2.38031 8.47379,2.59515 22.68099,2.57579 14.70061,-0.02 15.95023,-0.17916 24.22984,-3.0853 4.80141,-1.6853 11.31468,-4.5871 14.47393,-6.44846 7.64589,-4.50477 18.74316,-15.75789 24.29623,-24.63744 2.475,-3.95762 4.84649,-7.20718 5.26998,-7.22125 1.14122,-0.0379 18.73002,8.90604 18.73002,9.52428 0,1.80094 -5.16631,10.2189 -11.01644,17.95013 -13.75777,18.18156 -30.86926,29.15544 -52.38632,33.59621 -10.91897,2.25349 -32.50356,2.42996 -42.96442,0.35127 z m 86.87926,-111.46703 c 0.74363,-1.20321 -0.74006,-6.17812 -4.31855,-14.48045 -7.59786,-17.62752 -20.18055,-28.90247 -39.93232,-35.7821 -11.96225,-4.16651 -27.08993,-4.91508 -38.91205,-1.92552 -23.66743,5.98499 -38.56801,19.95365 -47.99174,44.99019 -1.31528,3.49437 -2.13221,6.77281 -1.8154,7.28542 0.82334,1.33219 132.14605,1.24574 132.97006,-0.0875 z m 70.71743,111.00445 c -10.07986,-2.64107 -21.98958,-9.09493 -29.44409,-15.95573 l -6.28542,-5.7848 6.43078,-7.37219 c 3.53693,-4.0547 6.774,-7.77425 7.19349,-8.26566 0.41948,-0.49142 3.15063,1.2648 6.06921,3.90271 12.43519,11.23933 21.45844,14.95748 34.66693,14.28497 10.1018,-0.51433 16.2366,-3.12651 22.83178,-9.72168 C 498.74113,400.02358 501,394.49688 501,385.74609 c 0,-14.42983 -6.51797,-21.39403 -33.77757,-36.09002 -29.47458,-15.89012 -39.45182,-26.69388 -42.39412,-45.90607 -2.31799,-15.13575 1.73767,-28.84673 11.72305,-39.63213 11.31381,-12.22026 29.84176,-17.67709 47.64942,-14.03365 8.15832,1.66919 22.58088,9.09832 31.12315,16.03168 l 7.71391,6.26102 -3.40099,3.56154 c -1.87055,1.95885 -5.14157,5.4669 -7.26892,7.79567 l -3.86793,4.23413 -4.43661,-3.88594 c -18.41115,-16.12597 -38.6171,-18.59386 -51.39812,-6.27761 -5.54247,5.34092 -7.66933,10.04511 -7.64331,16.90545 0.0253,6.66322 2.20951,12.20601 6.92754,17.57955 4.56313,5.19711 10.679,9.44626 25.5505,17.75184 30.13286,16.8289 39.68762,26.0634 43.96709,42.49341 1.76778,6.78695 1.97052,15.84725 0.52763,23.57855 -3.3335,17.86153 -19.48776,34.44896 -38.49472,39.52693 -7.3359,1.95989 -23.5452,1.63062 -32.27049,-0.65554 z M 136,323.5 V 214 H 109 82 v -12 -12 h 66.5 66.5 v 12 12 H 188 161 V 323.5 433 H 148.5 136 Z M 568,353 v -80 h -16.03621 -16.03621 l 0.28621,-9.75 0.28621,-9.75 15.75,-0.27539 15.75,-0.2754 V 219.47461 186 h 11.5 11.5 v 33.5 33.5 h 18.5 18.5 v 10 10 H 609.5 591 v 80 80 H 579.5 568 Z"
         id="path2" />
   </g>
</svg>