<svg xmlns="http://www.w3.org/2000/svg" viewBox="0 0 250 250">
    <g fill="none" stroke="#b48ebd" stroke-width="2">
        <path
            d="M115.28 106.64a.38.38 0 0 1 .5.04l36.27 36.08a.38.38 0 0 0 .41.09l22.54-8.96a.38.38 0 0 0 .24-.36l.06-73.46a.38.38 0 0 0-.24-.36l-22.57-9a.38.38 0 0 0-.41.09l-36.19 36.19a.38.38 0 0 1-.5.03L92.41 69.18a.38.38 0 0 0-.41-.04l-8.79 4.51a.38.38 0 0 0-.21.34v45.64a.38.38 0 0 0 .21.34l8.8 4.44a.38.38 0 0 0 .4-.04l22.87-17.73M115.5 148.71a.31.31 0 0 0-.31-.31h-2.88a.31.31 0 0 0-.31.31v32.48a.31.31 0 0 0 .31.31h2.88a.31.31 0 0 0 .31-.31v-32.48M201.06 178.27l-.34 2.68a.49.49 0 0 0 .49.55H204q.51 0 .5-.5l-.24-31.61q-.01-.86-.87-.88l-1.98-.04q-.7-.01-.7.69l.12 12.34q.01.29-.2.09c-5.73-5.4-13.1-3.35-15.85 3.59q-1.64 4.14-.73 8.9c1.6 8.3 11.39 10.94 16.5 3.99q.64-.87.51.2M45.74 151.75a2.3 2.3 0 0 0-2.3-2.3 2.3 2.3 0 0 0-2.3 2.3 2.3 2.3 0 0 0 2.3 2.3 2.3 2.3 0 0 0 2.3-2.3M213.98 151.76a2.3 2.3 0 0 0-2.3-2.3 2.3 2.3 0 0 0-2.3 2.3 2.3 2.3 0 0 0 2.3 2.3 2.3 2.3 0 0 0 2.3-2.3M140.05 173.26c1.53 7.68-9.66 5.42-13.02 2.99q-.53-.38-.53.27v3.19q0 .53.48.75 5.62 2.51 11.11.88c7.47-2.23 7.49-11.3 1.33-15.04q-3.39-2.06-6.67-4.35c-3.06-2.14-3.36-6.2.15-8.03q3.97-2.07 9.24.52 1.25.61.66-.65-.57-1.21-.05-2.48a.51.49 22.1 0 0-.29-.66c-5.71-2.19-14.38-1.2-15.74 5.95-1.91 10.03 11.91 9.53 13.33 16.66M24.97 176.71l-8.98-25.94a.77.77 0 0 0-.73-.52h-2.94q-.61 0-.4.58l10.61 29.2a2.71 2.71 0 0 0 5.09.01l10.85-29.39a.37.37 0 0 0-.36-.5l-2.93.09a.7.7 0 0 0-.65.47l-9.24 26a.17.17 0 0 1-.32 0M152.5 158.79v-5.75q0-.69-.63-.43l-2.39.99q-.48.19-.48.71v4.25a.72.72 0 0 1-.82.71l-2.22-.33a.62.62 0 0 0-.71.61v2.15a.62.62 0 0 0 .7.61l2.44-.3a.6.6 0 0 1 .67.6c-.13 5.91-3 22.74 8.68 18.84q.51-.17.51-.7V179a.56.56 0 0 0-.75-.52q-2.03.76-3.97-.31a1.17 1.17 0 0 1-.56-.74c-1.02-4.38-.55-10.24-.43-14.82q.01-.56.57-.53l4.34.23q.8.04.8-.76v-1.89a.57.57 0 0 0-.6-.57l-4.61.22q-.54.03-.54-.52M59.63 176.5c-.92 4.23-7.09 2.14-9.37.79a.47.47 0 0 0-.71.44l.18 2.52q.05.58.58.79c4.24 1.69 11.78 1.39 12.89-4.3 1.05-5.4-4.12-7.13-7.93-8.99-5.66-2.76.92-8.78 6.43-4.74q.55.4.55-.28v-2.69q0-.52-.49-.7c-5.78-2.09-13.02.13-11.91 7.62.72 4.87 10.81 4.76 9.78 9.54M103.31 178.8l-.33 2.01a.6.6 0 0 0 .59.69h2.45q.67 0 .69-.67c.12-4.66 1.03-15.79-1.58-19.51-2.85-4.07-9.3-2.91-13.33-1.01q-.55.26-.55.88v2.54q0 .67.52.25c3.68-2.93 11.42-4.32 11.37 2.93q0 .5-.49.53c-4.59.34-12.42.52-13.42 6.53-1.47 8.89 9.04 10.32 13.44 4.56a.36.36 0 0 1 .64.27M227.026 182.076a11.92 11.17 97.2 0 0 12.576-10.426 11.92 11.17 97.2 0 0-9.588-13.226 11.92 11.17 97.2 0 0-12.576 10.426 11.92 11.17 97.2 0 0 9.588 13.226M45.231 159.537a.4.4 0 0 0-.4-.4l-2.94.006a.4.4 0 0 0-.4.4l.038 21.56a.4.4 0 0 0 .4.4l2.94-.006a.4.4 0 0 0 .4-.4l-.038-21.56M81.8 178.82l-.2 2.08a.55.55 0 0 0 .55.6h2.6q.5 0 .5-.5v-21.05q0-.62-.62-.66l-2.55-.18a.65.64 89.6 0 0-.68.7q.81 10.88.02 14.18c-1.07 4.52-6.47 6.8-9.56 3.32-2.67-2.99-1.66-13.7-1.57-17.74q.01-.62-.6-.6l-2.42.09q-.72.03-.69.75c.2 4.98-.72 13.59.8 17.72 2.09 5.66 10.45 5.96 13.69 1.03a.4.4 0 0 1 .73.26M176.5 178.74q.1 1.05-.27 2a.56.56 0 0 0 .52.76h2.51q.51 0 .51-.51v-21.15q0-.45-.44-.51l-2.36-.32a.64.64 0 0 0-.73.63c.02 4.12 1.17 15.02-1.98 17.74-3.62 3.12-8.53 1.62-9.21-3.4q-.73-5.46.08-14.03.07-.7-.63-.7h-2.54q-.67 0-.68.67c-.14 7.06-2.6 27.85 12.48 20.85q.43-.2.72-.57l1.33-1.66q.6-.76.69.2M213.5 159.47a.27.27 0 0 0-.27-.27h-3.2a.27.27 0 0 0-.27.27v21.76a.27.27 0 0 0 .27.27h3.2a.27.27 0 0 0 .27-.27v-21.76"
            vector-effect="non-scaling-stroke" />
        <path
            d="M151.69 115.22a.35.35 0 0 0 .56-.28V78.62a.35.35 0 0 0-.56-.28L128.33 96.5a.35.35 0 0 0 0 .56l23.36 18.16M92.79 83.69a.33.33 0 0 0-.57.23l.05 25.91a.33.33 0 0 0 .56.23l12.93-12.97a.33.33 0 0 0 0-.47L92.79 83.69M193.709 179.054a8.79 6.84 93.4 0 0 7.349-8.368 8.79 6.84 93.4 0 0-6.307-9.18 8.79 6.84 93.4 0 0-7.349 8.368 8.79 6.84 93.4 0 0 6.307 9.18M95.61 178.57c5.12 1.43 7.78-3.08 7.42-7.81q-.04-.5-.54-.45-3.54.34-7 1.14c-3.74.87-3.93 6 .12 7.12M228.52 179.06a8.78 7.45 90.2 0 0 7.48-8.754 8.78 7.45 90.2 0 0-7.42-8.806 8.78 7.45 90.2 0 0-7.48 8.754 8.78 7.45 90.2 0 0 7.42 8.806"
            vector-effect="non-scaling-stroke" />
    </g>
    <path fill="#fff"
        d="M0 0h250v250H0V0Zm115.28 106.64a.38.38 0 0 1 .5.04l36.27 36.08a.38.38 0 0 0 .41.09l22.54-8.96a.38.38 0 0 0 .24-.36l.06-73.46a.38.38 0 0 0-.24-.36l-22.57-9a.38.38 0 0 0-.41.09l-36.19 36.19a.38.38 0 0 1-.5.03L92.41 69.18a.38.38 0 0 0-.41-.04l-8.79 4.51a.38.38 0 0 0-.21.34v45.64a.38.38 0 0 0 .21.34l8.8 4.44a.38.38 0 0 0 .4-.04l22.87-17.73Zm.22 42.07a.31.31 0 0 0-.31-.31h-2.88a.31.31 0 0 0-.31.31v32.48a.31.31 0 0 0 .31.31h2.88a.31.31 0 0 0 .31-.31v-32.48Zm85.56 29.56-.34 2.68a.49.49 0 0 0 .49.55H204q.51 0 .5-.5l-.24-31.61q-.01-.86-.87-.88l-1.98-.04q-.7-.01-.7.69l.12 12.34q.01.29-.2.09c-5.73-5.4-13.1-3.35-15.85 3.59q-1.64 4.14-.73 8.9c1.6 8.3 11.39 10.94 16.5 3.99q.64-.87.51.2ZM45.74 151.75a2.3 2.3 0 0 0-2.3-2.3 2.3 2.3 0 0 0-2.3 2.3 2.3 2.3 0 0 0 2.3 2.3 2.3 2.3 0 0 0 2.3-2.3Zm168.24.01a2.3 2.3 0 0 0-2.3-2.3 2.3 2.3 0 0 0-2.3 2.3 2.3 2.3 0 0 0 2.3 2.3 2.3 2.3 0 0 0 2.3-2.3Zm-73.93 21.5c1.53 7.68-9.66 5.42-13.02 2.99q-.53-.38-.53.27v3.19q0 .53.48.75 5.62 2.51 11.11.88c7.47-2.23 7.49-11.3 1.33-15.04q-3.39-2.06-6.67-4.35c-3.06-2.14-3.36-6.2.15-8.03q3.97-2.07 9.24.52 1.25.61.66-.65-.57-1.21-.05-2.48a.51.49 22.1 0 0-.29-.66c-5.71-2.19-14.38-1.2-15.74 5.95-1.91 10.03 11.91 9.53 13.33 16.66Zm-115.08 3.45-8.98-25.94a.77.77 0 0 0-.73-.52h-2.94q-.61 0-.4.58l10.61 29.2a2.71 2.71 0 0 0 5.09.01l10.85-29.39a.37.37 0 0 0-.36-.5l-2.93.09a.7.7 0 0 0-.65.47l-9.24 26a.17.17 0 0 1-.32 0Zm127.53-17.92v-5.75q0-.69-.63-.43l-2.39.99q-.48.19-.48.71v4.25a.72.72 0 0 1-.82.71l-2.22-.33a.62.62 0 0 0-.71.61v2.15a.62.62 0 0 0 .7.61l2.44-.3a.6.6 0 0 1 .67.6c-.13 5.91-3 22.74 8.68 18.84q.51-.17.51-.7V179a.56.56 0 0 0-.75-.52q-2.03.76-3.97-.31a1.17 1.17 0 0 1-.56-.74c-1.02-4.38-.55-10.24-.43-14.82q.01-.56.57-.53l4.34.23q.8.04.8-.76v-1.89a.57.57 0 0 0-.6-.57l-4.61.22q-.54.03-.54-.52ZM59.63 176.5c-.92 4.23-7.09 2.14-9.37.79a.47.47 0 0 0-.71.44l.18 2.52q.05.58.58.79c4.24 1.69 11.78 1.39 12.89-4.3 1.05-5.4-4.12-7.13-7.93-8.99-5.66-2.76.92-8.78 6.43-4.74q.55.4.55-.28v-2.69q0-.52-.49-.7c-5.78-2.09-13.02.13-11.91 7.62.72 4.87 10.81 4.76 9.78 9.54Zm43.68 2.3-.33 2.01a.6.6 0 0 0 .59.69h2.45q.67 0 .69-.67c.12-4.66 1.03-15.79-1.58-19.51-2.85-4.07-9.3-2.91-13.33-1.01q-.55.26-.55.88v2.54q0 .67.52.25c3.68-2.93 11.42-4.32 11.37 2.93q0 .5-.49.53c-4.59.34-12.42.52-13.42 6.53-1.47 8.89 9.04 10.32 13.44 4.56a.36.36 0 0 1 .64.27Zm123.716 3.276a11.92 11.17 97.2 0 0 12.576-10.426 11.92 11.17 97.2 0 0-9.588-13.226 11.92 11.17 97.2 0 0-12.576 10.426 11.92 11.17 97.2 0 0 9.588 13.226Zm-181.795-22.54a.4.4 0 0 0-.4-.399l-2.94.006a.4.4 0 0 0-.4.4l.038 21.56a.4.4 0 0 0 .4.4l2.94-.006a.4.4 0 0 0 .4-.4l-.038-21.56ZM81.8 178.82l-.2 2.08a.55.55 0 0 0 .55.6h2.6q.5 0 .5-.5v-21.05q0-.62-.62-.66l-2.55-.18a.65.64 89.6 0 0-.68.7q.81 10.88.02 14.18c-1.07 4.52-6.47 6.8-9.56 3.32-2.67-2.99-1.66-13.7-1.57-17.74q.01-.62-.6-.6l-2.42.09q-.72.03-.69.75c.2 4.98-.72 13.59.8 17.72 2.09 5.66 10.45 5.96 13.69 1.03a.4.4 0 0 1 .73.26Zm94.7-.08q.1 1.05-.27 2a.56.56 0 0 0 .52.76h2.51q.51 0 .51-.51v-21.15q0-.45-.44-.51l-2.36-.32a.64.64 0 0 0-.73.63c.02 4.12 1.17 15.02-1.98 17.74-3.62 3.12-8.53 1.62-9.21-3.4q-.73-5.46.08-14.03.07-.7-.63-.7h-2.54q-.67 0-.68.67c-.14 7.06-2.6 27.85 12.48 20.85q.43-.2.72-.57l1.33-1.66q.6-.76.69.2Zm37-19.27a.27.27 0 0 0-.27-.27h-3.2a.27.27 0 0 0-.27.27v21.76a.27.27 0 0 0 .27.27h3.2a.27.27 0 0 0 .27-.27v-21.76Z" />
    <path fill="#681c7b"
        d="m115.28 106.64-22.87 17.73a.38.38 0 0 1-.4.04l-8.8-4.44a.38.38 0 0 1-.21-.34V73.99a.38.38 0 0 1 .21-.34L92 69.14a.38.38 0 0 1 .41.04l22.98 17.84a.38.38 0 0 0 .5-.03l36.19-36.19a.38.38 0 0 1 .41-.09l22.57 9a.38.38 0 0 1 .24.36l-.06 73.46a.38.38 0 0 1-.24.36l-22.54 8.96a.38.38 0 0 1-.41-.09l-36.27-36.08a.38.38 0 0 0-.5-.04Zm36.41 8.58a.35.35 0 0 0 .56-.28V78.62a.35.35 0 0 0-.56-.28L128.33 96.5a.35.35 0 0 0 0 .56l23.36 18.16Zm-58.9-31.53a.33.33 0 0 0-.57.23l.05 25.91a.33.33 0 0 0 .56.23l12.93-12.97a.33.33 0 0 0 0-.47L92.79 83.69Z" />
    <path fill="#fff"
        d="m151.69 115.22-23.36-18.16a.35.35 0 0 1 0-.56l23.36-18.16a.35.35 0 0 1 .56.28v36.32a.35.35 0 0 1-.56.28ZM92.79 83.69l12.97 12.93a.33.33 0 0 1 0 .47l-12.93 12.97a.33.33 0 0 1-.56-.23l-.05-25.91a.33.33 0 0 1 .57-.23Z" />
    <rect width="3.5" height="33.1" x="112" y="148.4" fill="#681c7b" rx=".31" />
    <path fill="#681c7b"
        d="M200.55 178.07c-5.11 6.95-14.9 4.31-16.5-3.99q-.91-4.76.73-8.9c2.75-6.94 10.12-8.99 15.85-3.59q.21.2.2-.09l-.12-12.34q0-.7.7-.69l1.98.04q.86.02.87.88l.24 31.61q.01.5-.5.5h-2.79a.49.49 0 0 1-.49-.55l.34-2.68q.13-1.07-.51-.2Zm-6.841.984a8.79 6.84 93.4 0 0 7.349-8.368 8.79 6.84 93.4 0 0-6.307-9.18 8.79 6.84 93.4 0 0-7.349 8.368 8.79 6.84 93.4 0 0 6.307 9.18Z" />
    <circle cx="43.44" cy="151.75" r="2.3" fill="#681c7b" />
    <circle cx="211.68" cy="151.76" r="2.3" fill="#681c7b" />
    <path fill="#681c7b"
        d="M127.03 176.25c3.36 2.43 14.55 4.69 13.02-2.99-1.42-7.13-15.24-6.63-13.33-16.66 1.36-7.15 10.03-8.14 15.74-5.95a.51.49 22.1 0 1 .29.66q-.52 1.27.05 2.48.59 1.26-.66.65-5.27-2.59-9.24-.52c-3.51 1.83-3.21 5.89-.15 8.03q3.28 2.29 6.67 4.35c6.16 3.74 6.14 12.81-1.33 15.04q-5.49 1.63-11.11-.88-.48-.22-.48-.75v-3.19q0-.65.53-.27ZM24.97 176.71a.17.17 0 0 0 .32 0l9.24-26a.7.7 0 0 1 .65-.47l2.93-.09a.37.37 0 0 1 .36.5l-10.85 29.39a2.71 2.71 0 0 1-5.09-.01l-10.61-29.2q-.21-.58.4-.58h2.94a.77.77 0 0 1 .73.52l8.98 25.94ZM153.04 159.31l4.61-.22a.57.57 0 0 1 .6.57v1.89q0 .8-.8.76l-4.34-.23q-.56-.03-.57.53c-.12 4.58-.59 10.44.43 14.82a1.17 1.17 0 0 0 .56.74q1.94 1.07 3.97.31a.56.56 0 0 1 .75.52v1.75q0 .53-.51.7c-11.68 3.9-8.81-12.93-8.68-18.84a.6.6 0 0 0-.67-.6l-2.44.3a.62.62 0 0 1-.7-.61v-2.15a.62.62 0 0 1 .71-.61l2.22.33a.72.72 0 0 0 .82-.71v-4.25q0-.52.48-.71l2.39-.99q.63-.26.63.43v5.75q0 .55.54.52ZM50.26 177.29c2.28 1.35 8.45 3.44 9.37-.79 1.03-4.78-9.06-4.67-9.78-9.54-1.11-7.49 6.13-9.71 11.91-7.62q.49.18.49.7v2.69q0 .68-.55.28c-5.51-4.04-12.09 1.98-6.43 4.74 3.81 1.86 8.98 3.59 7.93 8.99-1.11 5.69-8.65 5.99-12.89 4.3q-.53-.21-.58-.79l-.18-2.52a.47.47 0 0 1 .71-.44ZM103.31 178.8a.36.36 0 0 0-.64-.27c-4.4 5.76-14.91 4.33-13.44-4.56 1-6.01 8.83-6.19 13.42-6.53q.49-.03.49-.53c.05-7.25-7.69-5.86-11.37-2.93q-.52.42-.52-.25v-2.54q0-.62.55-.88c4.03-1.9 10.48-3.06 13.33 1.01 2.61 3.72 1.7 14.85 1.58 19.51q-.02.67-.69.67h-2.45a.6.6 0 0 1-.59-.69l.33-2.01Zm-7.7-.23c5.12 1.43 7.78-3.08 7.42-7.81q-.04-.5-.54-.45-3.54.34-7 1.14c-3.74.87-3.93 6 .12 7.12ZM227.026 182.076a11.92 11.17 97.2 0 1-9.588-13.226 11.92 11.17 97.2 0 1 12.576-10.426 11.92 11.17 97.2 0 1 9.588 13.226 11.92 11.17 97.2 0 1-12.576 10.426Zm1.493-3.016a8.78 7.45 90.2 0 0 7.481-8.754 8.78 7.45 90.2 0 0-7.42-8.806 8.78 7.45 90.2 0 0-7.48 8.754 8.78 7.45 90.2 0 0 7.42 8.806Z" />
    <rect width="3.74" height="22.36" x="-1.87" y="-11.18" fill="#681c7b" rx=".4"
        transform="rotate(-.1 97607.837 -24769.743)" />
    <path fill="#681c7b"
        d="M81.8 178.82a.4.4 0 0 0-.73-.26c-3.24 4.93-11.6 4.63-13.69-1.03-1.52-4.13-.6-12.74-.8-17.72q-.03-.72.69-.75l2.42-.09q.61-.02.6.6c-.09 4.04-1.1 14.75 1.57 17.74 3.09 3.48 8.49 1.2 9.56-3.32q.79-3.3-.02-14.18a.65.64 89.6 0 1 .68-.7l2.55.18q.62.04.62.66V181q0 .5-.5.5h-2.6a.55.55 0 0 1-.55-.6l.2-2.08ZM175.81 178.54l-1.33 1.66q-.29.37-.72.57c-15.08 7-12.62-13.79-12.48-20.85q.01-.67.68-.67h2.54q.7 0 .63.7-.81 8.57-.08 14.03c.68 5.02 5.59 6.52 9.21 3.4 3.15-2.72 2-13.62 1.98-17.74a.64.64 0 0 1 .73-.63l2.36.32q.44.06.44.51v21.15q0 .51-.51.51h-2.51a.56.56 0 0 1-.52-.76q.37-.95.27-2-.09-.96-.69-.2Z" />
    <rect width="3.74" height="22.3" x="209.76" y="159.2" fill="#681c7b" rx=".27" />
    <ellipse fill="#fff" rx="8.79" ry="6.84" transform="rotate(93.4 16.883 176.657)" />
    <ellipse fill="#fff" rx="8.78" ry="7.45" transform="rotate(90.2 29.432 199.017)" />
    <path fill="#fff"
        d="M95.61 178.57c-4.05-1.12-3.86-6.25-.12-7.12q3.46-.8 7-1.14.5-.05.54.45c.36 4.73-2.3 9.24-7.42 7.81Z" />
</svg>