<svg
   viewBox="0 0 128 128"
   version="1.1"
   id="svg1">
   <g
      id="layer1">
      <path
         style="fill:#00cd3d;stroke-width:0.250847"
         d="M 57.556539,127.88495 C 42.600061,126.22908 29.282067,119.9043 18.779329,109.46947 8.7305103,99.485617 2.6706994,87.3336 0.45208519,72.716999 -0.08391181,69.185787 -0.16082017,59.990049 0.3157001,56.411955 2.2698788,41.738873 8.5064326,28.961228 18.679006,18.788659 38.246869,-0.77920527 68.15565,-5.5940074 92.800506,6.8563737 c 6.242823,3.1538233 11.433524,6.9187903 16.436874,11.9221413 12.66211,12.662104 19.30963,29.44868 18.72737,47.291047 -0.31192,9.55903 -2.32159,17.708263 -6.43346,26.088072 -6.41291,13.069206 -16.44689,23.104626 -29.483326,29.487586 -6.075583,2.97476 -11.934913,4.79518 -18.938933,5.88411 -3.138085,0.48787 -12.437314,0.70051 -15.552503,0.35569 z M 69.13163,116.60004 c 3.783273,-0.38738 7.296998,-1.11784 10.866516,-2.25901 l 3.144771,-1.00536 v -11.27885 c 0,-6.203367 -0.08466,-11.277791 -0.188107,-11.276491 -0.219288,0.0027 -26.740551,25.020421 -26.854368,25.331881 -0.04184,0.11508 0.691673,0.28214 1.630508,0.37115 0.93883,0.0891 1.876293,0.1985 2.083241,0.24321 0.914755,0.19752 6.953533,0.11554 9.317465,-0.12658 z M 63.284504,93.680187 83.142917,74.884158 V 64.623765 c 0,-6.292944 -0.09116,-10.228056 -0.235729,-10.176775 -0.129676,0.04603 -9.405237,8.719018 -20.61244,19.273398 C 51.087545,84.274772 41.444871,93.32945 40.866584,93.841901 L 39.815157,94.773642 25.696218,82.110157 C 17.930794,75.14524 11.547913,69.476992 11.512027,69.514046 c -0.03579,0.03742 0.09343,1.139739 0.287365,2.450412 2.476026,16.732622 13.284455,31.644162 28.433868,39.227972 1.566856,0.78437 2.926216,1.3941 3.02081,1.35496 0.0946,-0.039 9.108268,-8.52939 20.0304,-18.867203 z m 33.25098,11.978393 c 2.208752,-1.76391 7.183686,-6.604464 7.157806,-6.964479 -0.017,-0.239622 -6.753589,-6.455211 -8.531135,-7.871596 l -0.731127,-0.582592 v 8.421551 c 0,4.631856 0.07219,8.421556 0.160441,8.421556 0.08825,0 0.963046,-0.641 1.94406,-1.42444 z M 111.79917,86.325442 c 1.51014,-3.204167 2.97753,-7.487694 3.71653,-10.849127 0.44221,-2.011483 0.44444,-2.154901 0.0395,-2.533122 -2.5612,-2.39198 -20.575219,-18.731849 -20.810589,-18.876548 -0.248919,-0.153033 -0.313625,1.969477 -0.313625,10.296306 v 10.489077 l 7.838954,7.190173 c 4.31143,3.954596 7.90671,7.19929 7.98951,7.210432 0.0828,0.01134 0.77566,-1.306095 1.53968,-2.927191 z M 33.976944,63.568993 V 52.915899 l -7.96076,-7.15703 c -4.378421,-3.936374 -8.033072,-7.157042 -8.121452,-7.157042 -0.277327,0 -1.876094,3.266736 -3.06918,6.271173 -1.125051,2.833112 -2.672279,8.26461 -2.672279,9.380962 0,0.430628 2.608428,2.906011 10.819623,10.267771 5.950786,5.335188 10.861114,9.70035 10.911833,9.70035 0.05071,0 0.09222,-4.793892 0.09222,-10.65309 z m 20.945711,1.59126 c 3.44914,-3.237554 12.455811,-11.727446 20.014828,-18.866426 l 13.743663,-12.979959 3.690194,3.362613 c 11.39589,10.384291 23.97463,21.734235 24.0268,21.679689 0.18996,-0.198614 -0.78425,-5.376457 -1.50914,-8.021348 -3.58335,-13.074625 -11.82176,-24.111099 -23.296787,-31.209263 -2.440271,-1.509496 -6.076981,-3.350792 -6.618066,-3.350792 -0.30531,0 -3.937723,3.39933 -29.619757,27.718577 l -9.801437,9.281333 -0.01814,10.653748 -0.01814,10.653743 1.56779,-1.517733 c 0.862284,-0.834743 4.389819,-4.166623 7.838963,-7.404182 z m -21.002426,-40.116889 -0.0687,-4.309252 -1.567764,1.178843 c -2.227032,1.674571 -6.110023,5.17131 -7.024008,6.325306 l -0.7752,0.978774 4.683483,4.186195 4.683489,4.186203 0.0687,-4.11841 c 0.03768,-2.265126 0.03768,-6.057571 0,-8.427659 z m 22.179699,2.207644 c 5.714952,-5.415156 11.651188,-11.028336 13.191629,-12.473734 1.540441,-1.445399 2.712903,-2.715895 2.60547,-2.823334 -0.107433,-0.107427 -1.966904,-0.330363 -4.13215,-0.495412 -6.521416,-0.497085 -13.795612,0.373271 -19.91382,2.382686 l -2.460586,0.808135 -0.06527,11.223701 c -0.03783,6.489833 0.0291,11.223695 0.159307,11.223695 0.123553,0 4.900483,-4.43058 10.615439,-9.845737 z"
         id="path2" />
   </g>
</svg>