<?xml version="1.0" encoding="UTF-8" standalone="no"?>
<!-- Created with Inkscape (http://www.inkscape.org/) -->

<svg
   width="256"
   height="256"
   viewBox="0 0 67.733335 67.733335"
   version="1.1"
   id="svg1"
   inkscape:version="1.3 (1:1.3+202307231459+0e150ed6c4)"
   sodipodi:docname="gunshot_icon.svg"
   xmlns:inkscape="http://www.inkscape.org/namespaces/inkscape"
   xmlns:sodipodi="http://sodipodi.sourceforge.net/DTD/sodipodi-0.dtd"
   xmlns="http://www.w3.org/2000/svg"
   xmlns:svg="http://www.w3.org/2000/svg">
  <sodipodi:namedview
     id="namedview1"
     pagecolor="#ffffff"
     bordercolor="#111111"
     borderopacity="1"
     inkscape:showpageshadow="0"
     inkscape:pageopacity="0"
     inkscape:pagecheckerboard="1"
     inkscape:deskcolor="#d1d1d1"
     inkscape:document-units="mm"
     inkscape:zoom="1.4538721"
     inkscape:cx="396.87122"
     inkscape:cy="251.39763"
     inkscape:window-width="1920"
     inkscape:window-height="1043"
     inkscape:window-x="2688"
     inkscape:window-y="286"
     inkscape:window-maximized="1"
     inkscape:current-layer="layer1" />
  <defs
     id="defs1">
    <rect
       x="140.18271"
       y="151.25056"
       width="246.65781"
       height="113.2727"
       id="rect3111" />
  </defs>
  <g
     inkscape:label="Layer 1"
     inkscape:groupmode="layer"
     id="layer1">
    <path
       fill="currentColor"
       d="m -30.285096,30.20616 41.035848,-0.635716 c 0.357578,-4.014566 1.236976,-7.643515 2.531101,-10.577054 0.489451,-1.109598 1.049063,-2.132066 1.670621,-3.033359 l -34.39195,0.53345 -10.845506,13.712541 z m 7.06171,12.738646 2.589656,3.113667 L 12.2127,45.5494 a 23.893134,29.45928 0 0 1 -0.793675,-3.141504 l -34.64218,0.537183 z m 5.643313,6.785225 2.509246,3.016978 30.468629,-0.472079 c -0.65878,-0.8913 -1.255211,-1.913295 -1.780924,-3.028413 z M 17.707383,17.741879 c -0.630441,0.780001 -1.229782,1.789717 -1.77612,3.028243 -1.456981,3.302743 -2.396666,8.058988 -2.343155,13.318768 0.05362,5.259638 1.090093,9.985679 2.613718,13.242224 1.523967,3.256399 3.392198,4.874843 5.183277,4.847219 1.79096,-0.02776 3.62572,-1.703728 5.082588,-5.006328 0.223417,-0.506773 0.433213,-1.05132 0.630862,-1.623262 3.578122,5.537782 9.718621,10.897538 18.381327,15.911465 C 33.903854,45.584683 41.098311,45.016862 57.162896,52.06579 42.071626,41.040599 54.548854,34.761926 75.205314,31.589369 54.795416,30.02191 44.584384,23.917865 60.832995,11.38401 43.349866,21.818234 36.628038,18.652663 47.287333,4.2943556 37.431838,10.093954 30.650085,16.162498 26.889175,22.291588 c -0.21719,-0.594639 -0.447757,-1.158116 -0.692282,-1.68113 -1.523852,-3.256261 -3.392086,-4.875268 -5.182939,-4.847651 -1.119466,0.01747 -2.256104,0.678844 -3.306692,1.978655 z m 0.656955,5.133783 c 0.799174,-0.986502 1.72108,-1.554189 2.706931,-1.569465 1.652667,-0.02563 3.156224,1.508424 4.224243,3.978443 -2.626218,5.803634 -2.564405,11.63118 0.142776,17.306285 -1.016203,2.456171 -2.474066,4.003888 -4.108822,4.029362 -3.154504,0.04862 -5.769555,-5.578536 -5.840708,-12.568733 -0.04899,-4.805789 1.116849,-9.004963 2.87558,-11.175892 z"
       id="path1"
       style="stroke-width:0.179193" />
  </g>
</svg>
